<?xml version="1.0" encoding="UTF-8" standalone="no"?>
<!-- Created with Inkscape (http://www.inkscape.org/) -->

<svg
   xmlns:dc="http://purl.org/dc/elements/1.1/"
   xmlns:cc="http://creativecommons.org/ns#"
   xmlns:rdf="http://www.w3.org/1999/02/22-rdf-syntax-ns#"
   xmlns:svg="http://www.w3.org/2000/svg"
   xmlns="http://www.w3.org/2000/svg"
   xmlns:sodipodi="http://sodipodi.sourceforge.net/DTD/sodipodi-0.dtd"
   xmlns:inkscape="http://www.inkscape.org/namespaces/inkscape"
   width="210mm"
   height="297mm"
   viewBox="0 0 210 297"
   version="1.1"
   id="svg8"
   inkscape:version="0.92.3 (2405546, 2018-03-11)"
   sodipodi:docname="genebrowser-logo.svg">
  <defs
     id="defs2" />
  <sodipodi:namedview
     id="base"
     pagecolor="#ffffff"
     bordercolor="#666666"
     borderopacity="1.0"
     inkscape:pageopacity="0.0"
     inkscape:pageshadow="2"
     inkscape:zoom="0.35"
     inkscape:cx="169.31374"
     inkscape:cy="910.75406"
     inkscape:document-units="mm"
     inkscape:current-layer="g969"
     showgrid="false"
     inkscape:window-width="1600"
     inkscape:window-height="1163"
     inkscape:window-x="1680"
     inkscape:window-y="0"
     inkscape:window-maximized="1" />
  <metadata
     id="metadata5">
    <rdf:RDF>
      <cc:Work
         rdf:about="">
        <dc:format>image/svg+xml</dc:format>
        <dc:type
           rdf:resource="http://purl.org/dc/dcmitype/StillImage" />
        <dc:title></dc:title>
      </cc:Work>
    </rdf:RDF>
  </metadata>
  <g
     inkscape:label="Layer 1"
     inkscape:groupmode="layer"
     id="layer1">
    <g
       id="g969">
      <rect
         style="opacity:1;fill:#396494;fill-opacity:1;stroke:none;stroke-width:0.88125396;stroke-miterlimit:4;stroke-dasharray:none;stroke-dashoffset:0;stroke-opacity:1"
         id="rect1791-9"
         width="203.65938"
         height="4.2763128"
         x="2.4054279"
         y="22.781467" />
      <g
         id="g1945"
         transform="translate(-0.08631444)">
        <rect
           transform="matrix(0,1,1,0,0,0)"
           y="21.598372"
           x="16.765545"
           height="4.0502896"
           width="16.183203"
           id="rect1791-9-6"
           style="opacity:1;fill:#396494;fill-opacity:1;stroke:none;stroke-width:0.24176277;stroke-miterlimit:4;stroke-dasharray:none;stroke-dashoffset:0;stroke-opacity:1" />
        <rect
           transform="matrix(0,1,1,0,0,0)"
           y="61.947327"
           x="16.765545"
           height="4.0502896"
           width="16.183203"
           id="rect1791-9-6-2"
           style="opacity:1;fill:#396494;fill-opacity:1;stroke:none;stroke-width:0.24176279;stroke-miterlimit:4;stroke-dasharray:none;stroke-dashoffset:0;stroke-opacity:1" />
        <rect
           transform="matrix(0,1,1,0,0,0)"
           y="102.29629"
           x="16.765545"
           height="4.0502896"
           width="16.183203"
           id="rect1791-9-6-28"
           style="opacity:1;fill:#396494;fill-opacity:1;stroke:none;stroke-width:0.24176279;stroke-miterlimit:4;stroke-dasharray:none;stroke-dashoffset:0;stroke-opacity:1" />
        <rect
           transform="matrix(0,1,1,0,0,0)"
           y="142.64525"
           x="16.765545"
           height="4.0502896"
           width="16.183203"
           id="rect1791-9-6-1"
           style="opacity:1;fill:#396494;fill-opacity:1;stroke:none;stroke-width:0.24176279;stroke-miterlimit:4;stroke-dasharray:none;stroke-dashoffset:0;stroke-opacity:1" />
        <rect
           transform="matrix(0,1,1,0,0,0)"
           y="182.9942"
           x="16.765545"
           height="4.0502896"
           width="16.183203"
           id="rect1791-9-6-26"
           style="opacity:1;fill:#396494;fill-opacity:1;stroke:none;stroke-width:0.24176279;stroke-miterlimit:4;stroke-dasharray:none;stroke-dashoffset:0;stroke-opacity:1" />
        <path
           style="fill:#396494;fill-opacity:1;stroke:none;stroke-width:0.13395374px;stroke-linecap:butt;stroke-linejoin:miter;stroke-opacity:1"
           d="m 3.2270738,15.904435 -9.0443352,8.986045 9.0443352,9.044333 z"
           id="path1947"
           inkscape:connector-curvature="0"
           sodipodi:nodetypes="cccc" />
        <path
           style="fill:#396494;fill-opacity:1;stroke:none;stroke-width:0.13395374px;stroke-linecap:butt;stroke-linejoin:miter;stroke-opacity:1"
           d="m 204.16675,15.904435 9.04433,8.986045 -9.04433,9.044333 z"
           id="path1947-0"
           inkscape:connector-curvature="0"
           sodipodi:nodetypes="cccc" />
        <path
           style="fill:#fbb320;fill-opacity:1;stroke-width:0.20198093"
           d="m 121.84093,103.5821 c -0.66652,-0.10194 -2.86233,-0.14089 -4.87956,-0.0866 -2.17816,0.0586 -3.88025,0.0178 -4.1911,-0.1004 l -0.52343,-0.199 -0.0201,-7.023829 c -0.0111,-3.86312 -0.0792,-7.23372 -0.15148,-7.490231 -0.16607,-0.589676 -0.51378,-0.597646 -0.60414,-0.01387 -0.0539,0.347927 -0.10816,0.382631 -0.24939,0.159488 -0.15452,-0.244096 -0.181,-0.243249 -0.18365,0.0056 -0.008,0.683103 -0.59658,-0.539826 -0.6026,-1.250498 -0.007,-0.86503 -0.35104,-1.032142 -0.44746,-0.217558 -0.0952,0.804088 -0.50926,0.796167 -0.99018,-0.01904 -0.23458,-0.397568 -0.49519,-0.722868 -0.57912,-0.722868 -0.0839,0 -0.29022,0.431728 -0.45843,0.959406 -0.34342,1.077362 -0.86171,1.356684 -1.15215,0.620942 -0.17795,-0.450798 -0.19109,-0.442683 -0.33072,0.204345 -0.0799,0.370586 -0.26884,0.721144 -0.41967,0.779034 -0.22267,0.0854 -0.28326,1.4596 -0.32208,7.30446 l -0.0478,7.199209 -0.0557,-7.116539 c -0.0539,-6.8773 -0.0414,-7.14699 0.36987,-8.022017 0.23409,-0.49801 0.37877,-1.022115 0.32149,-1.16468 -0.0573,-0.142565 -0.1113,-0.05921 -0.12006,0.185204 -0.009,0.244435 -0.175,0.533365 -0.3694,0.642075 -0.32389,0.181098 -0.36243,0.836998 -0.46036,7.836798 l -0.10686,7.639159 -0.0446,-7.608269 c -0.0246,-4.18455 0.0109,-7.752032 0.078,-7.92775 0.0674,-0.175726 0.24921,-0.319493 0.40396,-0.319493 0.15475,0 0.28425,-0.159061 0.28779,-0.353469 0.008,-0.446296 0.59806,-1.275036 0.6026,-0.846534 0.002,0.236595 0.0351,0.240628 0.17397,0.02154 0.12888,-0.203314 0.19923,-0.161094 0.28628,0.171813 0.16021,0.612658 0.54657,0.306999 0.54657,-0.432406 0,-0.334012 0.0941,-0.783108 0.20909,-0.997988 0.23699,-0.442836 0.80082,-0.529372 0.80082,-0.122924 0,0.147276 0.22029,0.474723 0.48954,0.72766 l 0.48952,0.459897 0.0659,-0.576166 c 0.0985,-0.86186 0.608,-0.709002 1.10889,0.332738 l 0.43703,0.908912 0.13529,-0.605938 c 0.22546,-1.009798 0.27924,-1.110894 0.59101,-1.110894 0.18297,0 0.34015,0.256277 0.4026,0.656434 0.0564,0.361035 0.16197,1.020001 0.23475,1.464354 0.0728,0.44436 0.17142,4.057304 0.2192,8.028754 0.0652,5.423959 0.14734,7.227039 0.32985,7.245849 0.13362,0.0138 2.42435,0.0649 5.0905,0.1137 6.98388,0.12776 12.49143,0.0553 12.7248,-0.16744 0.12489,-0.1192 0.24054,-3.346079 0.30297,-8.454409 0.0754,-6.166808 0.16416,-8.324733 0.3501,-8.510486 0.37368,-0.373263 0.55517,-0.04412 0.29299,0.531292 -0.23637,0.518797 -0.13387,0.62508 0.32317,0.335086 0.14398,-0.09134 0.20131,-0.31571 0.12888,-0.504431 -0.0718,-0.186946 -0.0381,-0.452346 0.0747,-0.589789 0.11285,-0.137451 0.3191,-1.158823 0.45835,-2.269717 0.13925,-1.110901 0.37993,-2.168508 0.53484,-2.350268 0.1549,-0.181743 0.38127,-0.931594 0.50302,-1.666328 0.12848,-0.77534 0.32236,-1.335905 0.46205,-1.335905 0.13239,0 0.34718,-0.233699 0.47732,-0.519329 0.14806,-0.324962 0.36809,-0.494542 0.58787,-0.453096 0.27674,0.05219 0.40984,0.451499 0.62751,1.8827 0.35321,2.322302 0.47094,2.618959 0.64074,1.614493 0.0992,-0.587071 0.1499,-0.669896 0.18535,-0.302973 l 0.0489,0.504955 0.14349,-0.504955 c 0.13855,-0.487475 0.14833,-0.481353 0.28284,0.176735 0.0766,0.374925 0.11887,5.782962 0.0939,12.017876 l -0.0454,11.336169 -0.11371,-11.108949 c -0.0625,-6.109924 -0.13295,-11.108955 -0.15649,-11.108955 -0.0235,0 -0.25771,0 -0.5204,0 -0.41721,0 -0.45229,0.05558 -0.27733,0.439561 0.24158,0.530211 0.007,1.747354 -0.24488,1.274423 -0.0882,-0.165063 -0.22087,-0.890915 -0.29492,-1.612993 -0.3327,-3.24416 -0.33119,-3.238207 -0.73137,-2.863653 -0.37344,0.349524 -1.0036,2.435723 -1.0036,3.322533 0,0.275862 -0.12331,0.603905 -0.27403,0.72899 -0.15392,0.127748 -0.33137,0.8443 -0.40484,1.634797 -0.13687,1.472718 -0.66983,2.731807 -1.15631,2.731807 -0.23961,0 -0.30189,1.279577 -0.38662,7.94422 -0.11764,9.255029 0.0929,8.517229 -2.43065,8.517229 -0.85005,0 -2.62778,0.0399 -3.95053,0.0887 -1.32274,0.0487 -2.95032,0.006 -3.61686,-0.0966 z m 3.48418,-0.13927 c -0.41658,-0.0436 -1.09827,-0.0436 -1.51485,0 -0.41659,0.0436 -0.0757,0.0792 0.75742,0.0792 0.83317,0 1.17401,-0.0357 0.75743,-0.0792 z m -10.29742,-0.19918 c -0.3035,-0.046 -0.84884,-0.0469 -1.21188,-0.002 -0.36302,0.045 -0.1147,0.0827 0.55183,0.0838 0.66654,8e-4 0.96356,-0.0356 0.66005,-0.0817 z m 7.57067,0.002 c -0.24995,-0.0482 -0.65896,-0.0482 -0.90891,0 -0.24995,0.0482 -0.0454,0.0875 0.45446,0.0875 0.49991,0 0.70441,-0.0394 0.45445,-0.0875 z m 7.17825,-0.006 c -0.63441,-0.04 -1.72511,-0.0403 -2.42378,-8.1e-4 -0.69866,0.0395 -0.17959,0.0722 1.15348,0.0727 1.33308,4.1e-4 1.90471,-0.032 1.2703,-0.0719 z m -16.87334,-0.18717 c -0.19385,-0.0782 -0.26354,-1.7276 -0.30018,-7.103879 l -0.0478,-7.00202 -0.0561,6.86603 c -0.0308,3.7763 -0.0123,6.980229 0.0414,7.119819 0.0536,0.13959 0.21386,0.24664 0.35621,0.23787 0.20272,-0.0125 0.20408,-0.038 0.006,-0.11782 z m 4.54458,-0.0109 c -0.3055,-0.0463 -0.80539,-0.0463 -1.11089,0 -0.3055,0.0463 -0.0555,0.0841 0.55544,0.0841 0.611,0 0.86095,-0.0379 0.55545,-0.0841 z m 3.02522,-0.002 c -0.41908,-0.0437 -1.05531,-0.0429 -1.41387,0.002 -0.35857,0.0446 -0.0157,0.0804 0.76193,0.0795 0.77762,-8e-4 1.07099,-0.0373 0.65194,-0.0812 z m 10.92296,-0.36289 c -0.0622,-0.0622 -0.17513,0.0499 -0.25099,0.24911 -0.10961,0.28785 -0.0864,0.31106 0.11308,0.11307 0.13804,-0.13702 0.20009,-0.3 0.13791,-0.36218 z m 0.19022,-11.861029 c -0.0327,-2.138466 -0.0594,-0.38881 -0.0594,3.88814 0,4.27695 0.0268,6.026599 0.0594,3.88813 0.0327,-2.13847 0.0327,-5.63779 0,-7.77627 z m -19.20144,-2.41094 c -0.0644,-0.161134 -0.11233,-0.113268 -0.12202,0.12202 -0.009,0.212928 0.039,0.332222 0.10608,0.26511 0.0671,-0.06711 0.0743,-0.24133 0.016,-0.38713 z m -0.95231,-0.832474 c 0.003,-0.08992 -0.0779,-0.111276 -0.18101,-0.04751 -0.10314,0.06372 -0.24774,-0.07405 -0.32142,-0.306273 -0.20977,-0.660934 -0.34017,-0.311152 -0.18745,0.502858 0.12531,0.668025 0.16213,0.701582 0.41055,0.374111 0.1501,-0.197852 0.27579,-0.433261 0.27933,-0.523137 z m -3.7536,-0.139557 c 0.19583,-0.263286 0.17904,-0.266658 -0.12812,-0.02581 -0.19441,0.152463 -0.34628,0.42513 -0.33752,0.605938 0.0133,0.274983 0.0343,0.279202 0.12812,0.02581 0.0617,-0.166635 0.21358,-0.439319 0.33752,-0.605938 z m 4.56794,-0.302973 c 0,-0.673276 -0.0786,-0.908919 -0.30297,-0.908919 -0.343,0 -0.40626,0.316283 -0.10095,0.504955 0.11109,0.06865 0.20198,0.392139 0.20198,0.718851 0,0.326705 0.0454,0.594024 0.10096,0.594024 0.0555,0 0.10095,-0.409005 0.10095,-0.908911 z m -2.54178,-0.330512 c -0.0947,-0.153341 -0.19952,-0.119745 -0.32483,0.104234 -0.10171,0.181776 -0.12202,0.432342 -0.0451,0.556822 0.0947,0.153334 0.19951,0.119738 0.32483,-0.104225 0.10171,-0.181792 0.12203,-0.432358 0.0451,-0.556831 z m -1.22812,-0.641881 c 0.12939,0.0776 0.10696,-0.01702 -0.0499,-0.210283 -0.34547,-0.425638 -0.62484,-0.112542 -0.60473,0.677721 l 0.0129,0.504955 0.20328,-0.556709 c 0.12457,-0.341119 0.29439,-0.502091 0.43852,-0.415684 z m 1.82313,-0.239499 c -0.0639,-0.166635 -0.15197,-0.302973 -0.19565,-0.302973 -0.0437,0 -0.0793,0.136338 -0.0793,0.302973 0,0.166635 0.0881,0.302973 0.19565,0.302973 0.10762,0 0.14332,-0.136338 0.0793,-0.302973 z m 22.6826,-0.959407 c -0.0561,-0.138863 -0.10182,-0.02525 -0.10182,0.252478 0,0.277725 0.0459,0.39134 0.10182,0.252477 0.0561,-0.138863 0.0561,-0.366092 0,-0.504955 z m 0.20744,-1.716847 c -0.0508,-0.194392 -0.0923,-0.03533 -0.0923,0.353477 0,0.388815 0.0416,0.547868 0.0923,0.35346 0.0508,-0.194399 0.0508,-0.512529 0,-0.706937 z m 0.53276,-1.539879 c 0.15616,-1.029738 -0.0735,-0.786262 -0.26953,0.285743 -0.0837,0.457702 -0.084,0.756699 -6.1e-4,0.664444 0.0834,-0.09221 0.20493,-0.51983 0.27018,-0.950187 z m 2.29859,-1.790446 c -0.0483,-0.251243 -0.0897,-0.09319 -0.0919,0.351114 -0.002,0.44436 0.0373,0.649924 0.0878,0.456815 0.0506,-0.193109 0.0524,-0.556677 0.004,-0.807929 z m -1.82269,-0.191713 c -0.0645,-0.161126 -0.11234,-0.11326 -0.12203,0.122028 -0.009,0.212928 0.039,0.332222 0.10609,0.26511 0.0671,-0.06711 0.0743,-0.24133 0.016,-0.387138 z m 1.61783,-1.11967 c -0.0512,-0.196521 -0.0965,-0.08467 -0.10062,0.24863 -0.004,0.333271 0.0378,0.494058 0.0931,0.357317 0.0553,-0.136758 0.0587,-0.409426 0.007,-0.605947 z m -0.31586,-1.118943 c -0.33627,-0.33628 -0.52672,-0.0024 -0.21374,0.374933 0.18929,0.228085 0.29876,0.255325 0.35448,0.08817 0.0444,-0.132999 -0.019,-0.341402 -0.14074,-0.463148 z M 59.578184,90.096571 c -0.03201,-8.999814 -0.11663,-13.552945 -0.250347,-13.470304 -0.11109,0.06864 -0.203367,0.0056 -0.205071,-0.139565 -0.0022,-0.192125 -0.05659,-0.181582 -0.198887,0.03856 -0.1616,0.250066 -0.193851,0.232433 -0.184696,-0.10095 0.0065,-0.222181 0.08926,-0.585748 0.184696,-0.807929 0.168831,-0.392881 0.173977,-0.392082 0.187787,0.02888 0.0077,0.238071 0.136339,0.479715 0.285636,0.537011 0.194419,0.07461 0.245047,-0.03388 0.178434,-0.382346 -0.09068,-0.474561 -0.259338,-0.575085 -0.830762,-0.4953 -0.185843,0.02589 -0.235576,-0.07647 -0.148008,-0.304643 0.07255,-0.189044 0.0507,-0.445821 -0.04862,-0.570599 -0.09931,-0.124779 -0.107288,-0.408651 -0.0177,-0.630831 0.152902,-0.379338 0.163685,-0.375571 0.177025,0.06187 0.0077,0.256212 0.309596,0.735597 0.670628,1.06531 l 0.656436,0.599453 0.0044,13.982273 0.0044,13.982289 L 59.939306,89.957021 59.835077,76.42429 59.73052,90.058011 59.625964,103.69172 59.577564,90.096581 Z M 63.6188,103.33825 c 0.04589,-0.13951 0.482688,-0.27631 0.976247,-0.30574 0.491264,-0.0293 1.089358,-0.0971 1.329096,-0.15067 l 0.435872,-0.0973 0.06905,-13.119559 c 0.05342,-10.150918 0.126212,-13.176672 0.321548,-13.371959 0.387997,-0.387864 0.691016,0.0463 0.969364,1.388925 0.263282,1.269954 0.311387,1.197325 0.632301,-0.954583 0.135225,-0.906749 0.243038,-1.121944 0.586666,-1.171044 0.360148,-0.05146 0.455211,-0.284993 0.657769,-1.615857 0.130232,-0.855633 0.236187,-1.787453 0.235444,-2.070744 -8.06e-4,-0.283275 0.08118,-0.601388 0.18203,-0.706929 0.100842,-0.10554 0.233663,-0.646335 0.295141,-1.201784 0.390848,-3.53108 0.530519,-4.265621 0.746298,-3.924655 0.156475,0.247267 0.183329,0.24767 0.185974,0.0032 0.0011,-0.157375 0.06184,-0.227375 0.133684,-0.155552 0.07178,0.07179 0.194921,0.862328 0.273552,1.756671 0.110347,1.254999 0.241868,1.731351 0.576352,2.087385 l 0.433371,0.461308 -0.04818,16.751394 -0.04818,16.751413 -0.103355,-16.663441 c -0.05681,-9.164904 -0.176841,-16.777062 -0.266715,-16.915924 -0.277572,-0.428873 -0.543673,-0.279686 -0.540429,0.302963 0.0022,0.415136 0.04982,0.481579 0.188093,0.263012 0.146893,-0.232166 0.209737,-0.190552 0.304985,0.201991 0.06599,0.271925 0.0944,7.765726 0.06315,16.652881 l -0.05681,16.158478 -0.04928,-16.287516 c -0.04654,-15.368988 -0.06916,-16.285934 -0.402637,-16.259468 -0.236733,0.01879 -0.372068,-0.138604 -0.410011,-0.4769 -0.116739,-1.040674 -0.262791,-1.413865 -0.553344,-1.413865 -0.226223,0 -0.292136,0.233836 -0.27046,0.959415 l 0.02863,0.959405 0.144653,-0.80792 0.144654,-0.807927 0.02863,0.947491 c 0.01573,0.521112 -0.05277,0.997795 -0.152192,1.059269 -0.09953,0.06155 -0.239104,0.862142 -0.310295,1.779249 -0.188464,2.427874 -0.468714,3.364066 -1.05078,3.510148 -0.421975,0.105871 -0.477869,0.236853 -0.477869,1.119492 0,1.05109 -0.346743,2.771019 -0.619596,3.073354 -0.183023,0.202797 -0.786996,-1.118064 -0.808475,-1.768085 -0.01387,-0.419177 -0.01846,-0.419822 -0.187776,-0.02581 -0.09549,0.222172 -0.179987,5.700637 -0.187787,12.174339 l -0.0142,11.770399 -0.518098,0.19698 c -0.786067,0.29886 -2.968847,0.2566 -2.866213,-0.0555 z m 1.919957,-0.0942 c -0.305499,-0.0463 -0.805405,-0.0463 -1.110893,0 -0.305497,0.0463 -0.0555,0.0841 0.555442,0.0841 0.610996,0 0.86095,-0.0379 0.555451,-0.0841 z m 1.163881,-11.990999 0.0022,-11.799072 -0.05463,11.703992 c -0.04217,9.040799 -0.111724,11.744459 -0.305466,11.881759 -0.18428,0.13061 -0.170437,0.15582 0.05212,0.0951 0.264867,-0.0724 0.303281,-1.56652 0.305466,-11.881769 z m 1.512361,-11.294124 c 0,-0.111091 -0.09625,-0.201983 -0.2139,-0.201983 -0.117645,0 -0.15772,0.0909 -0.08904,0.201983 0.06861,0.11109 0.164919,0.20199 0.213898,0.20199 0.04895,0 0.08904,-0.0909 0.08904,-0.20199 z m -0.467961,-0.845792 c -0.06446,-0.161126 -0.112335,-0.113268 -0.122026,0.122028 -0.0087,0.21292 0.039,0.332214 0.106085,0.265101 0.06708,-0.06711 0.07429,-0.241321 0.01596,-0.387129 z m -0.551803,-1.443527 c 0.09079,-0.09265 0.114915,-0.360486 0.05354,-0.595121 -0.107725,-0.412014 -0.116826,-0.41316 -0.265413,-0.03347 -0.08456,0.216227 -0.144959,0.847598 -0.134099,1.403049 0.01813,0.92406 0.02655,0.941217 0.100296,0.201982 0.04424,-0.444361 0.154847,-0.88376 0.245659,-0.976443 z m 0.351812,0.323857 c -0.05124,-0.196529 -0.09647,-0.08467 -0.100623,0.24863 -0.0044,0.33327 0.0378,0.494049 0.09308,0.357308 0.05529,-0.136749 0.05867,-0.409425 0.0077,-0.605938 z m 1.012792,-0.708429 c -0.04829,-0.251244 -0.0897,-0.0933 -0.09188,0.351105 -0.0022,0.444368 0.03726,0.649924 0.08784,0.456823 0.05059,-0.193109 0.05244,-0.556677 0.0044,-0.807928 z m 0.766555,-0.890125 c 0.260299,-0.260286 0.276458,-0.366859 0.07462,-0.491622 -0.330922,-0.204531 -0.504976,-0.09079 -0.637709,0.416838 -0.128954,0.493106 0.112729,0.525194 0.563142,0.07486 z m 0.644428,-2.845027 c -0.05124,-0.196522 -0.09647,-0.08467 -0.100624,0.24863 -0.0044,0.33327 0.0378,0.494057 0.09309,0.357308 0.05529,-0.136749 0.05867,-0.409425 0.0077,-0.605938 z m 0.308132,-1.504541 c 0.04042,-0.408788 0.0022,-0.698814 -0.08631,-0.644512 -0.08784,0.05429 -0.152597,0.479668 -0.143824,0.945235 0.01792,0.95017 0.119766,0.817075 0.230168,-0.300723 z m 1.305715,-2.829252 c -0.06446,-0.161126 -0.112335,-0.113268 -0.122026,0.122036 -0.0087,0.21292 0.039,0.332214 0.106086,0.265094 0.06708,-0.06711 0.07429,-0.241322 0.01596,-0.38713 z m -0.176916,-1.551777 c -0.03409,-0.57277 -0.152935,-1.062931 -0.264026,-1.089252 -0.242632,-0.05743 -0.382097,1.326234 -0.204853,2.032421 0.212971,0.848575 0.536824,0.197142 0.468879,-0.943169 z m 4.791426,19.262981 c 0.01529,-11.437976 0.09057,-16.749918 0.243245,-17.168385 0.215079,-0.589548 0.222071,-0.592282 0.258551,-0.100951 l 0.03748,0.504955 0.161708,-0.504955 c 0.158747,-0.495679 0.162113,-0.493832 0.18298,0.100951 0.03365,0.958122 0.403292,2.070032 0.729888,2.195359 0.21934,0.08413 0.29902,0.446886 0.29902,1.361202 0,0.872241 0.09079,1.313778 0.302329,1.470702 0.180839,0.134144 0.354259,0.727071 0.431579,1.475622 0.07965,0.771436 0.234865,1.291895 0.404614,1.357031 0.229217,0.08795 0.267281,2.280679 0.227185,13.089275 l -0.04818,12.983609 -0.105649,-12.421829 -0.10565,-12.42182 -0.09494,12.42182 -0.09494,12.421829 -0.104776,-12.522819 c -0.07855,-9.38679 -0.167968,-12.665199 -0.35722,-13.091411 -0.138862,-0.312725 -0.252477,-0.757158 -0.252477,-0.987631 0,-0.230472 -0.133301,-0.519958 -0.296233,-0.643293 -0.162932,-0.123343 -0.333162,-0.587813 -0.378295,-1.032174 -0.04512,-0.444352 -0.04185,-0.648867 0.0077,-0.45446 0.04916,0.194408 0.173944,0.353469 0.277299,0.353469 0.103355,0 0.18794,0.181784 0.18794,0.403964 0,0.222181 0.0921,0.403956 0.204689,0.403956 0.119678,0 0.07768,-0.303836 -0.100951,-0.731604 -0.168122,-0.402375 -0.305674,-1.084056 -0.305674,-1.514849 0,-0.430793 -0.0909,-0.783262 -0.20199,-0.783262 -0.11109,0 -0.20198,-0.267311 -0.20198,-0.594016 0,-0.326712 -0.0909,-0.650198 -0.201979,-0.718851 -0.241813,-0.149454 -0.276622,0.942241 -0.039,1.221983 0.0897,0.105541 0.101608,0.509997 0.02655,0.898813 l -0.136427,0.706937 -0.02655,-0.63993 c -0.01466,-0.351952 -0.09474,-0.806412 -0.178092,-1.009894 -0.08336,-0.203499 -0.197773,6.628658 -0.254356,15.182542 l -0.102918,15.55253 -0.09724,-15.55253 -0.09724,-15.552531 -0.111003,15.451539 -0.111003,15.451552 z M 79.22296,77.939142 C 79.15435,77.82806 79.012601,77.73716 78.908077,77.73716 c -0.104557,0 -0.190071,0.0909 -0.190071,0.201982 0,0.11109 0.141704,0.20199 0.314894,0.20199 0.173191,0 0.258716,-0.0909 0.19006,-0.20199 z m -0.567699,-1.363371 c -0.0508,-0.194408 -0.09243,-0.03533 -0.09243,0.353469 0,0.388807 0.04152,0.547868 0.09243,0.35346 0.0508,-0.194408 0.0508,-0.512521 0,-0.706929 z m -1.73547,-4.988925 c 0.284598,-0.29944 0.214359,-0.717028 -0.120595,-0.717028 -0.225459,0 -0.296977,0.219607 -0.27955,0.858415 0.01289,0.472134 0.06719,0.676632 0.120606,0.454452 0.05342,-0.22218 0.179232,-0.490315 0.279539,-0.595839 z m 6.152641,19.582045 c 0.0358,-12.624456 0.11899,-14.037669 0.82566,-14.037669 0.15588,0 0.36913,0.225487 0.47392,0.501099 0.3237,0.851374 0.76302,0.414652 0.87476,-0.869588 0.32053,-3.684269 1.16498,-4.719016 1.44166,-1.766536 0.0846,0.902619 0.25613,1.601869 0.42796,1.744483 0.15774,0.130909 0.2868,0.372215 0.2868,0.536229 0,0.164013 0.14684,0.60768 0.32634,0.985921 0.17948,0.378224 0.28169,0.858391 0.22713,1.067028 -0.0545,0.208629 0.0273,0.82181 0.18207,1.362637 0.27618,0.965529 0.2797,0.968691 0.19418,0.175371 -0.0479,-0.444361 -0.0109,-0.989704 0.0834,-1.211884 0.12169,-0.288446 0.17449,-0.07889 0.18462,0.732693 0.009,0.718173 0.11933,1.223919 0.29975,1.373655 0.45089,0.374191 0.53462,2.108212 0.59079,12.234301 l 0.0527,9.493109 -0.11421,-8.786179 -0.11423,-8.786176 -0.0888,8.887166 -0.0888,8.887159 -0.10993,-9.502309 c -0.0952,-8.22653 -0.15314,-9.568872 -0.43176,-9.998059 -0.17699,-0.272651 -0.38016,-1.131535 -0.45147,-1.908609 -0.0714,-0.777091 -0.2219,-1.443624 -0.33463,-1.481205 -0.11272,-0.03759 -0.20496,-0.276838 -0.20496,-0.531703 0,-0.254866 -0.13633,-0.576545 -0.30296,-0.714826 -0.16664,-0.138298 -0.30298,-0.546191 -0.30298,-0.906411 0,-0.6625 -0.70511,-1.806731 -1.00075,-1.624012 -0.0883,0.05453 -0.20235,0.603962 -0.25351,1.220911 -0.0996,1.201825 -0.20713,1.38886 -0.92222,1.605031 -0.38671,0.116906 -0.49457,0.0388 -0.67979,-0.492565 -0.12108,-0.34733 -0.2778,-0.573882 -0.34828,-0.503455 -0.0705,0.0705 -0.17836,5.687603 -0.23976,12.482633 l -0.11163,12.354579 -0.0877,-11.108949 -0.0877,-11.108957 -0.11516,11.007967 -0.11517,11.007969 z m 6.08946,-6.410532 c -0.0483,-0.251258 -0.0897,-0.0933 -0.0919,0.351106 -0.002,0.444368 0.0373,0.649924 0.0878,0.456807 0.0506,-0.19311 0.0523,-0.556677 0.004,-0.807913 z m -0.48336,-2.797273 c -0.0905,-0.09058 -0.12066,0.307998 -0.0672,0.885857 l 0.0973,1.050638 0.0672,-0.885858 c 0.0369,-0.487225 -0.007,-0.960011 -0.0973,-1.050637 z m -5.16755,-2.553073 c -0.0437,-0.419064 -0.0802,-0.125698 -0.0812,0.651925 -8.1e-4,0.777631 0.0349,1.1205 0.0795,0.761933 0.0446,-0.35855 0.0453,-0.994794 0.002,-1.413858 z m 4.15062,-0.264997 c -0.0592,-0.226584 -0.15286,-0.366842 -0.20803,-0.311684 -0.10926,0.109267 0.0838,0.723667 0.22734,0.723667 0.0486,0 0.04,-0.185398 -0.0193,-0.411983 z m -2.4802,-0.09297 c 0,-0.166635 0.0909,-0.302973 0.20198,-0.302973 0.11109,0 0.20198,-0.401439 0.20198,-0.892077 0,-0.490645 0.0978,-0.924672 0.21723,-0.964496 0.13592,-0.04533 0.16147,-0.294536 0.0683,-0.665904 -0.13212,-0.526412 -0.16649,-0.548667 -0.30402,-0.1969 -0.0853,0.218123 -0.16269,0.714721 -0.17202,1.103529 -0.0258,1.07478 -0.21757,1.589955 -0.64213,1.724696 -0.42424,0.134644 -0.32387,0.497098 0.13766,0.497098 0.16007,0 0.29105,-0.136337 0.29105,-0.302973 z m -1.09014,-1.075719 c -0.30416,-0.304166 -0.30976,-0.28784 -0.074,0.215211 0.14033,0.299384 0.28844,0.447475 0.32911,0.329109 0.0406,-0.118366 -0.0742,-0.363318 -0.25517,-0.54432 z m 3.24792,0.128933 c -0.0645,-0.161125 -0.11233,-0.113276 -0.12202,0.122029 -0.009,0.212912 0.039,0.332213 0.10608,0.265093 0.0671,-0.06711 0.0743,-0.241322 0.016,-0.387122 z m -0.50491,-1.217789 c -0.14492,-0.14492 -0.239,-0.15685 -0.239,-0.03025 0,0.269602 0.23886,0.508464 0.37366,0.373666 0.0574,-0.05735 -0.003,-0.211911 -0.13466,-0.343369 z m -0.30102,-1.113773 c -0.0512,-0.196529 -0.0965,-0.08467 -0.10062,0.24863 -0.004,0.333263 0.0378,0.49405 0.0931,0.357309 0.0553,-0.136742 0.0587,-0.409426 0.008,-0.605939 z m -0.30549,-1.181385 c -0.0993,-0.850341 -0.14478,-0.826425 -0.2962,0.155681 -0.0834,0.540544 -0.047,0.7194 0.13216,0.650642 0.1537,-0.05897 0.2157,-0.363761 0.16404,-0.806323 z m 6.8907,20.921168 c -0.0201,-4.49912 0.0274,-8.543798 0.10565,-8.988142 0.12811,-0.728023 0.20686,-0.814196 0.79628,-0.871225 0.5931,-0.05735 0.65628,-0.0098 0.67735,0.504955 0.0438,1.071989 0.35662,-0.951598 0.36909,-2.387743 0.0109,-1.21232 0.0615,-1.372801 0.53412,-1.682477 0.66523,-0.435875 0.93992,-0.194545 0.33595,0.29514 -0.24996,0.202652 -0.45171,0.490226 -0.44832,0.639051 0.004,0.175161 0.0788,0.145929 0.21201,-0.08292 0.11323,-0.194408 0.33769,-0.353461 0.49881,-0.353461 0.16112,0 0.29577,-0.06816 0.29922,-0.151495 0.0595,-1.436428 0.21866,-2.730024 0.37142,-3.018962 0.10587,-0.20032 0.30703,-0.891069 0.44691,-1.535024 0.41977,-1.932405 0.90511,-1.813563 1.06955,0.2619 0.0803,1.014088 0.0628,1.151991 -0.0768,0.605938 -0.14904,-0.582562 -0.16802,-0.482023 -0.10783,0.571398 0.0768,1.345213 0.22245,1.7155 0.49888,1.26822 0.13818,-0.223576 0.18519,-0.222584 0.27604,0.0056 0.0852,0.214404 0.11302,0.216961 0.12545,0.01162 0.009,-0.148276 0.24512,-0.01565 0.53941,0.302981 l 0.523468,0.566703 -0.434158,-0.653522 c -0.32988,-0.496558 -0.38431,-0.739097 -0.22663,-1.009894 0.19587,-0.336408 0.20785,-0.335488 0.21364,0.01637 0.003,0.205023 0.17672,0.614037 0.385198,0.908911 0.20847,0.294867 0.48936,1.195099 0.62419,2.000494 0.16448,0.982501 0.33583,1.464362 0.52072,1.464362 0.15211,0 0.32826,0.294068 0.39318,0.656433 0.0647,0.361043 0.0906,4.746559 0.0574,9.745589 l -0.0601,9.089149 -0.0548,-9.291119 c -0.0457,-7.765725 -0.10313,-9.355043 -0.34925,-9.680352 -0.16195,-0.214073 -0.34304,-0.340643 -0.40241,-0.281266 -0.0593,0.05937 0.0306,0.222938 0.19989,0.363462 0.26898,0.223229 0.30174,1.431838 0.25947,9.572386 l -0.0484,9.316899 -0.0546,-9.160919 c -0.0517,-8.659757 -0.0757,-9.187709 -0.43983,-9.65055 -0.21182,-0.269288 -0.44327,-0.873232 -0.51432,-1.342091 -0.11822,-0.780083 -0.305008,-1.35236 -0.706798,-2.165354 -0.0824,-0.166635 -0.29904,-0.332359 -0.48154,-0.368278 -0.26492,-0.05211 -0.33181,0.103572 -0.33181,0.772234 0,0.688707 -0.0628,0.825562 -0.35348,0.770097 -0.30105,-0.05743 -0.37006,-0.381644 -0.46541,-2.186117 -0.0616,-1.165245 -0.12974,-1.737715 -0.15148,-1.27214 -0.0217,0.465567 -0.11993,0.896174 -0.21818,0.956898 -0.0982,0.06074 -0.28721,0.725046 -0.41993,1.476284 -0.33722,1.908892 -0.35975,1.963114 -0.69871,1.681791 -0.50086,-0.415668 -0.7176,0.503971 -0.89799,3.810265 -0.10073,1.845531 -0.18897,2.337211 -0.41964,2.337211 -0.18723,0 -0.36886,-0.361698 -0.50583,-1.007307 -0.14628,-0.68949 -0.32495,-1.028737 -0.56629,-1.075208 -0.33021,-0.06356 -0.35558,0.455654 -0.39968,8.177645 l -0.0471,8.245539 -0.10664,-8.281229 -0.10663,-8.281221 -0.10106,8.281221 -0.10106,8.281229 z m 2.12494,-8.887159 c -0.0261,-0.941749 -0.0434,-0.988268 -0.11295,-0.30553 -0.0451,0.442949 -0.16777,0.908605 -0.2725,1.034795 -0.10478,0.12619 -0.13076,0.384911 -0.0578,0.574955 0.23488,0.612077 0.47675,-0.09953 0.44328,-1.30422 z m -0.98705,0.02702 c -0.008,-0.07034 -0.0779,-0.289187 -0.15585,-0.486297 -0.11953,-0.302368 -0.17614,-0.266997 -0.36238,0.226407 -0.19814,0.524943 -0.18219,0.574697 0.15584,0.486297 0.20712,-0.05421 0.37019,-0.156052 0.36239,-0.226407 z m 1.16695,-2.296867 c -0.0483,-0.251244 -0.0897,-0.0933 -0.0919,0.351112 -0.002,0.444361 0.0373,0.649924 0.0878,0.456815 0.0506,-0.193117 0.0523,-0.556685 0.004,-0.807927 z m 5.246628,-0.595678 c -0.0645,-0.161118 -0.11234,-0.113268 -0.12203,0.122036 -0.009,0.21292 0.039,0.332214 0.10609,0.265094 0.0671,-0.06711 0.0743,-0.241322 0.0159,-0.38713 z m -0.2,-1.11967 c -0.0512,-0.196521 -0.0965,-0.08467 -0.10062,0.248638 -0.004,0.333255 0.0378,0.49405 0.0931,0.357301 0.0553,-0.136742 0.0587,-0.409418 0.008,-0.605939 z m -3.641848,-1.518705 c -0.056,-0.138863 -0.10194,-0.02525 -0.10194,0.252478 0,0.277725 0.0459,0.391332 0.10194,0.252469 0.056,-0.138862 0.056,-0.366084 0,-0.504947 z m 0.20619,-0.795304 c -0.0644,-0.161126 -0.11234,-0.11326 -0.12203,0.122028 -0.009,0.212928 0.039,0.332222 0.10608,0.265109 0.0671,-0.06711 0.0743,-0.241321 0.0159,-0.387137 z m 0.4272,-1.502871 c -0.0665,-0.533962 -0.0806,-0.519886 -0.17719,0.177194 -0.0601,0.434205 -0.0293,0.681657 0.0723,0.580045 0.0975,-0.09745 0.14463,-0.438206 0.10488,-0.757239 z m 0.54572,-0.883026 c 0.0686,-0.111091 -0.0168,-0.201974 -0.19006,-0.201974 -0.17319,0 -0.3149,0.0909 -0.3149,0.201974 0,0.11109 0.0855,0.201982 0.19006,0.201982 0.10456,0 0.24624,-0.0909 0.3149,-0.201982 z m 38.974988,15.65352 c 5e-5,-5.554466 0.026,-7.797701 0.0577,-4.984955 0.0317,2.812745 0.0317,7.357325 -7e-5,10.099055 -0.0317,2.741719 -0.0577,0.44039 -0.0576,-5.1141 z m 3.97346,9.480599 c -0.0209,-0.46897 0.11698,-0.72527 0.57026,-1.0604 0.32878,-0.24307 0.7763,-0.44195 0.9945,-0.44195 0.21821,0 0.85812,-0.10651 1.42204,-0.23666 l 1.02532,-0.23668 -0.003,-6.984149 c -0.003,-8.107436 0.41924,-12.755177 1.37505,-15.121812 0.30768,-0.761813 0.57223,-1.174545 0.6609,-1.031084 0.0999,0.161553 0.17634,0.114937 0.23556,-0.14355 0.0483,-0.210532 0.15636,0.07171 0.24025,0.627121 0.0839,0.555442 0.23554,1.328024 0.33698,1.716831 0.10138,0.388816 0.24099,1.479519 0.31013,2.423777 0.0691,0.944258 0.25079,2.213107 0.40369,2.819666 0.21843,0.866547 0.26788,2.943832 0.23077,9.695101 l -0.0472,8.592249 -0.10751,-8.685179 -0.1075,-8.685193 -0.0917,8.685193 -0.0917,8.685179 -0.10708,-8.906889 c -0.0739,-6.143997 -0.17749,-8.994743 -0.33418,-9.190135 -0.12494,-0.155786 -0.27346,-1.146715 -0.33004,-2.202064 -0.0566,-1.055356 -0.21769,-2.36081 -0.35801,-2.901024 -0.22076,-0.849913 -0.28455,-0.931513 -0.47364,-0.605938 -0.1202,0.206943 -0.39035,1.557843 -0.60036,3.002007 -0.30052,2.066581 -0.40896,4.367765 -0.5092,10.805984 l -0.12736,8.180239 -0.50494,0.0306 c -0.27772,0.0169 -0.5504,0.0511 -0.60594,0.0762 -0.12539,0.0567 -0.71989,0.14509 -1.51487,0.22518 -0.68388,0.069 -1.21427,0.48359 -1.38366,1.08182 -0.0629,0.22218 -0.0881,0.10576 -0.0558,-0.25882 0.0657,-0.74483 -0.1938,-0.62206 -0.33371,0.15784 -0.0804,0.44803 -0.0937,0.43523 -0.11809,-0.11351 z m 2.14379,-1.23761 c -0.19441,-0.0508 -0.51253,-0.0508 -0.70694,0 -0.1944,0.0508 -0.0353,0.0923 0.35348,0.0923 0.38882,0 0.54787,-0.0415 0.35346,-0.0923 z m 2.22417,-7.952609 -0.0531,-7.561693 -0.10084,7.715833 c -0.0555,4.2437 -0.0315,7.646469 0.0531,7.561689 0.0847,-0.0848 0.13008,-3.556899 0.10085,-7.715829 z m 0.18735,-8.622083 c -0.0508,-0.194408 -0.0923,-0.03541 -0.0923,0.35346 0,0.388816 0.0415,0.547869 0.0923,0.353469 0.0508,-0.194408 0.0508,-0.512538 0,-0.706929 z m 2.73252,0.114712 c -0.12647,-0.126473 -0.15461,0.0065 -0.0794,0.374925 0.0862,0.422735 0.13698,0.47352 0.19583,0.195835 0.0437,-0.206208 -0.009,-0.463058 -0.11636,-0.57076 z m -2.53054,-1.528578 c -0.0508,-0.194408 -0.0923,-0.03541 -0.0923,0.353461 0,0.388814 0.0415,0.547867 0.0923,0.353468 0.0508,-0.194407 0.0508,-0.512537 0,-0.706929 z m 2.22997,-1.005409 c -0.0437,-0.419057 -0.0802,-0.12569 -0.0812,0.651932 -8.1e-4,0.777631 0.0348,1.1205 0.0795,0.761934 0.0446,-0.358566 0.0453,-0.994802 8.1e-4,-1.413866 z m -2.02437,-0.507093 c -0.0483,-0.25126 -0.0897,-0.0932 -0.0919,0.351105 -0.002,0.444353 0.0373,0.649916 0.0878,0.456807 0.0506,-0.193109 0.0524,-0.556677 0.004,-0.807912 z m 1.81495,-1.109409 c -0.0512,-0.196529 -0.0965,-0.08467 -0.10062,0.24863 -0.004,0.33327 0.0378,0.494049 0.0931,0.357308 0.0553,-0.136741 0.0586,-0.409425 0.007,-0.605938 z m -1.61327,-0.710777 c -0.0482,-0.249953 -0.0875,-0.04549 -0.0875,0.454452 0,0.499905 0.0394,0.704412 0.0875,0.454459 0.0481,-0.249953 0.0481,-0.658958 0,-0.908911 z m 0.42439,-1.065754 c -0.0622,-0.06219 -0.17513,0.04993 -0.25098,0.249114 -0.10961,0.287865 -0.0864,0.311064 0.11307,0.113066 0.13804,-0.137007 0.20009,-0.299988 0.13791,-0.36218 z m 0.78491,-0.445264 c -0.0512,-0.196521 -0.0965,-0.08467 -0.10062,0.24863 -0.004,0.33327 0.0378,0.494058 0.0931,0.357316 0.0553,-0.136749 0.0586,-0.409417 0.007,-0.605946 z m -0.33529,-0.357308 c 0.27409,-0.373667 0.26981,-0.383177 -0.0571,-0.126755 -0.1944,0.152462 -0.35346,0.372118 -0.35346,0.488112 0,0.116011 0.0258,0.173048 0.0571,0.126764 0.0315,-0.0463 0.1905,-0.265941 0.35346,-0.488121 z m 5.30567,15.249563 c -0.0304,-9.164515 0.0495,-11.155707 0.40947,-10.217548 0.0753,0.196312 0.0685,0.462341 -0.0152,0.591177 -0.0837,0.128844 -0.19933,4.55159 -0.25701,9.828361 l -0.10489,9.594089 z m 0.43616,0.60594 c 0,-5.05458 0.0262,-7.12236 0.0582,-4.59507 0.032,2.52729 0.032,6.66286 0,9.19013 -0.032,2.527299 -0.0582,0.45952 -0.0582,-4.59506 z m 3.1376,-1.61585 c -0.0924,-9.782633 -0.13533,-10.863358 -0.45322,-11.41192 -0.3014,-0.520128 -0.35131,-0.545489 -0.35238,-0.179033 -8.1e-4,0.524596 -0.98261,1.546082 -1.34965,1.405235 -0.19947,-0.07663 -0.27256,0.165288 -0.28758,0.951429 -0.0111,0.579731 -0.0852,1.281287 -0.16472,1.559012 l -0.14459,0.504957 -0.10325,-0.518837 c -0.0568,-0.285356 -0.0345,-0.694369 0.0495,-0.90891 0.084,-0.21455 0.14551,-0.88998 0.13663,-1.500976 l -0.0161,-1.110893 -0.14131,0.908911 -0.14131,0.908911 -0.0304,-0.768975 c -0.042,-1.066448 0.36332,-2.563713 0.69413,-2.563713 0.14989,0 0.39837,0.240177 0.55218,0.533712 l 0.27964,0.533712 0.23176,-0.664839 c 0.12747,-0.365665 0.23315,-1.083016 0.23485,-1.59411 0.003,-0.945903 0.37608,-1.969946 0.41199,-1.131252 0.0169,0.396898 0.02,0.397051 0.1719,0.0087 0.10128,-0.259068 0.19872,0.176654 0.28259,1.264098 0.0703,0.912687 0.24437,1.863156 0.38663,2.112173 0.20113,0.352049 0.26065,2.878575 0.26758,11.359718 l 0.009,10.906969 -0.11174,-10.200039 -0.11175,-10.20004 -0.0991,10.30103 -0.0991,10.301029 -0.10205,-10.805989 z m 0.1403,-10.856478 c -0.0508,-0.194407 -0.0923,-0.03541 -0.0923,0.353469 0,0.388816 0.0415,0.547868 0.0923,0.353461 0.0508,-0.194408 0.0508,-0.512522 0,-0.70693 z m -1.75507,0.08066 c 0,-0.286098 -0.4754,-1.343019 -0.60409,-1.343019 -0.23759,0 -0.42826,0.608205 -0.27063,0.863247 0.0851,0.137661 0.19409,0.07373 0.28943,-0.169716 0.12836,-0.327786 0.15523,-0.301279 0.16713,0.164901 0.007,0.305481 0.10511,0.555434 0.21617,0.555434 0.11109,0 0.20199,-0.03194 0.20199,-0.0709 z m 0.40396,-0.422186 c 0,-0.04896 -0.0909,-0.145243 -0.20197,-0.213896 -0.11109,-0.06865 -0.20199,-0.02864 -0.20199,0.08904 0,0.11764 0.0909,0.213896 0.20199,0.213896 0.11109,0 0.20197,-0.04009 0.20197,-0.08904 z m 0.84947,-1.647356 c -0.1278,-0.228359 -0.23254,-0.262593 -0.32849,-0.107283 -0.0774,0.12536 -0.0446,0.227916 0.073,0.227916 0.11765,0 0.22444,0.204499 0.23734,0.454452 0.0172,0.331915 0.048,0.360857 0.11458,0.10729 0.0502,-0.190915 0.006,-0.497985 -0.0965,-0.682375 z m 4.44451,20.501469 c -0.0395,-2.935069 -0.0147,-3.175119 0.36627,-3.519789 0.31334,-0.28358 0.46418,-0.31446 0.64633,-0.1323 0.13069,0.13069 0.43081,0.2376 0.66696,0.2376 0.23614,0 0.62962,0.2132 0.87442,0.47376 0.42179,0.44898 0.44179,0.62064 0.38247,3.282189 l -0.0626,2.80843 -0.0443,-2.74592 c -0.0415,-2.570969 -0.0733,-2.770469 -0.49876,-3.130719 -0.454,-0.38437 -0.45409,-0.38434 -0.10095,0.0351 0.30363,0.36067 0.34727,0.8021 0.30956,3.130699 l -0.0439,2.71084 -0.0634,-2.61266 c -0.0376,-1.546599 -0.15627,-2.724559 -0.29098,-2.886879 -0.1264,-0.15228 -0.50526,-0.2479 -0.8521,-0.21506 l -0.62454,0.0591 -0.10946,2.827739 -0.10947,2.82773 -0.0845,-3.13071 -0.0845,-3.130699 -0.11701,3.130699 -0.11704,3.13071 z m 1.03713,-3.120219 c -0.0657,-0.17144 -0.16293,-0.26836 -0.21586,-0.21542 -0.053,0.053 -0.0364,0.19319 0.0368,0.31168 0.19918,0.32224 0.31558,0.25964 0.17901,-0.0963 z m 5.43249,5.921379 c 0.0635,-0.19101 0.92596,-0.27149 3.35109,-0.31271 l 3.26557,-0.0555 0.0148,-8.023729 c 0.007,-4.41306 0.0956,-8.478191 0.19433,-9.033641 0.0988,-0.555451 0.23611,-1.328024 0.3052,-1.716839 0.18033,-1.014847 0.68889,-2.056378 0.95997,-1.966026 0.12771,0.04259 0.28692,0.343289 0.35381,0.668251 0.0669,0.324962 0.23374,0.799579 0.37079,1.054703 0.13706,0.255115 0.32468,0.845912 0.41691,1.312866 0.1441,0.729483 0.17146,0.763709 0.19434,0.243081 0.0331,-0.753295 0.71448,-1.704764 1.01003,-1.410381 0.11345,0.113018 0.28295,0.567468 0.37669,1.009909 l 0.17041,0.804436 0.28442,-0.504955 c 0.15644,-0.277726 0.37812,-1.413866 0.49263,-2.524759 0.18799,-1.823615 0.24968,-2.025726 0.6351,-2.080739 0.38737,-0.05525 0.45749,0.106307 0.75744,1.745782 0.28125,1.537306 0.32343,3.248104 0.28292,11.472852 l -0.0477,9.666139 -0.10673,-9.897069 -0.10675,-9.897055 -0.092,9.897055 -0.092,9.897069 -0.10718,-10.233889 c -0.11178,-10.675871 -0.23139,-12.204579 -0.68832,-8.796592 -0.0562,0.420008 -0.24399,1.047492 -0.41705,1.394402 -0.17305,0.346911 -0.31465,0.846873 -0.31465,1.111007 0,0.427017 -0.48398,0.858867 -0.70963,0.63321 -0.0474,-0.04743 -0.2158,-0.581303 -0.37411,-1.186346 l -0.28784,-1.100076 -0.0717,0.80792 c -0.0628,0.708026 -0.13407,0.807928 -0.57659,0.807928 -0.4264,0 -0.53114,-0.125682 -0.67331,-0.807928 -0.28232,-1.354877 -0.59539,-2.322777 -0.7513,-2.322777 -0.47584,0 -0.68658,2.937467 -0.78974,11.007962 l -0.10848,8.483199 -3.60358,0.0553 c -2.84729,0.0436 -3.58561,8.1e-4 -3.51804,-0.20197 z m 6.92312,-8.336449 0.003,-8.281211 -0.0562,8.225731 -0.0562,8.225719 -3.27993,0.0635 -3.27993,0.0635 3.33269,-0.007 3.33268,-0.007 0.003,-8.281209 z m 4.3391,-8.38221 c 0,-0.22218 -0.0909,-0.403956 -0.20197,-0.403956 -0.11109,0 -0.20199,0.03799 -0.20199,0.08445 0,0.04646 -0.0552,0.228246 -0.12259,0.403956 -0.0804,0.209661 -0.0111,0.319493 0.20198,0.319493 0.18993,0 0.32457,-0.167587 0.32457,-0.403956 z m -1.45445,-0.419774 c 0.12245,-0.9916 0.277,-1.126454 0.56063,-0.489137 0.26737,0.600767 0.26975,0.601525 0.27878,0.08915 0.0118,-0.667315 -0.51608,-1.446341 -0.67619,-0.998004 -0.56325,1.576928 -0.66933,2.033808 -0.45596,1.963614 0.12778,-0.04203 0.25952,-0.296552 0.29274,-0.565574 z m -2.64917,-0.0221 c -0.0645,-0.161134 -0.11234,-0.113268 -0.12202,0.122028 -0.009,0.21292 0.039,0.332222 0.10608,0.265101 0.0671,-0.06711 0.0743,-0.241329 0.016,-0.387129 z m 1.90056,-0.517579 c -0.0752,-0.557218 -0.12204,-0.633421 -0.1774,-0.288285 -0.0694,0.432382 0.0554,1.045709 0.21277,1.045709 0.0367,0 0.0207,-0.340844 -0.0354,-0.757424 z m 2.95186,-1.916466 c -0.0483,-0.251243 -0.0897,-0.0933 -0.0919,0.351113 -0.002,0.444361 0.0373,0.649924 0.0878,0.456815 0.0506,-0.193109 0.0524,-0.556676 0.004,-0.807928 z m -4.44845,0.414225 c -0.0644,-0.161118 -0.11235,-0.11326 -0.12204,0.122036 -0.009,0.21292 0.039,0.332213 0.10609,0.265101 0.0671,-0.06711 0.0743,-0.241321 0.016,-0.387137 z m 0.87193,-0.442336 c 0,-0.04194 -0.12825,-0.182695 -0.28499,-0.31279 -0.21823,-0.181106 -0.32019,-0.17959 -0.43517,0.0065 -0.0918,0.148534 -0.0649,0.190326 0.0691,0.107509 0.12058,-0.07453 0.27633,-0.04315 0.34609,0.06977 0.12487,0.20203 0.30502,0.278242 0.30502,0.129022 z m 4.57734,-0.58019 c -0.0561,-0.138863 -0.10182,-0.02525 -0.10182,0.252477 0,0.277726 0.0459,0.39134 0.10182,0.252478 0.0561,-0.138863 0.0561,-0.366093 0,-0.504955 z m -0.80245,-1.110894 c -0.0508,-0.194407 -0.0924,-0.03541 -0.0924,0.353477 0,0.388799 0.0415,0.547868 0.0924,0.353461 0.0508,-0.194408 0.0508,-0.51253 0,-0.706938 z m 0.37935,-0.496276 c -0.17412,-0.248613 -0.31661,-0.346273 -0.31661,-0.217025 0,0.129263 0.0909,0.29118 0.20198,0.359841 0.11109,0.06865 0.21436,0.369416 0.22949,0.668355 0.0238,0.471448 0.0391,0.483677 0.11463,0.09221 0.048,-0.248242 -0.0554,-0.654756 -0.22949,-0.903361 z m 4.37767,10.44385 c -0.0398,-9.817528 0.003,-12.009332 0.26542,-13.532739 0.17208,-0.999796 0.44196,-1.91691 0.59974,-2.038003 0.15779,-0.1211 0.34812,-0.741211 0.42297,-1.378011 0.0872,-0.741446 0.19698,-1.061761 0.30544,-0.890714 0.13487,0.212719 0.17123,0.205427 0.17859,-0.03581 0.007,-0.260221 0.0354,-0.258301 0.19444,0.01355 0.10183,0.174097 0.28271,1.264792 0.40188,2.423777 0.11917,1.158977 0.35376,2.652579 0.52129,3.31912 0.16792,0.668058 0.43678,3.477786 0.59916,6.261404 0.162,2.777237 0.38127,5.458536 0.48728,5.958446 0.33936,1.6003 0.61639,3.86572 0.81513,6.66537 0.21484,3.026649 0.37499,4.039619 0.63868,4.039619 0.0972,0 0.17673,0.19286 0.17673,0.4286 0,0.39646 -0.0333,0.40645 -0.4448,0.13325 -0.59951,-0.39805 -0.73254,-0.98855 -0.96852,-4.298499 -0.2063,-2.8938 -0.48128,-5.15413 -0.82317,-6.76636 -0.10598,-0.49991 -0.31906,-3.18121 -0.47346,-5.958444 -0.15439,-2.777237 -0.34154,-5.200409 -0.41588,-5.38483 -0.0743,-0.184414 -0.30178,-1.229671 -0.50544,-2.322786 -0.23999,-1.28808 -0.38261,-1.7387 -0.40527,-1.280546 l -0.0349,0.706938 -0.20875,-0.573116 c -0.14816,-0.406715 -0.14352,-0.638365 0.016,-0.797822 0.12359,-0.123593 0.22471,-0.364245 0.22471,-0.534784 0,-0.170548 -0.18824,0.04106 -0.41832,0.470399 -0.25029,0.467011 -0.34472,0.854068 -0.2351,0.96369 0.10962,0.10963 0.10193,0.565638 -0.0191,1.135342 -0.11339,0.533518 -0.25595,6.236059 -0.32424,12.970009 l -0.12188,12.017869 -0.0947,-11.916879 -0.0946,-11.91687 -0.10587,11.91687 -0.10587,11.916879 z m 4.9368,10.364149 c -0.0644,-0.16114 -0.11234,-0.11327 -0.12203,0.12203 -0.009,0.21292 0.039,0.33222 0.10609,0.2651 0.0671,-0.0671 0.0743,-0.24133 0.016,-0.38713 z m -0.20073,-1.3255 c -0.0508,-0.19441 -0.0924,-0.0353 -0.0924,0.35346 0,0.38881 0.0415,0.54787 0.0924,0.35347 0.0508,-0.19441 0.0508,-0.51252 0,-0.70693 z m -0.19305,-2.721409 c -0.0428,-0.47506 -0.0782,-0.13662 -0.0789,0.75208 -8.1e-4,0.88873 0.0342,1.277409 0.0776,0.86377 0.0434,-0.41366 0.044,-1.14078 8.1e-4,-1.61585 z m -0.2052,-2.32534 c -0.0465,-0.30703 -0.0857,-0.1038 -0.0872,0.45168 -8.1e-4,0.55544 0.0365,0.80664 0.0845,0.55822 0.048,-0.24842 0.0491,-0.70288 0.003,-1.0099 z m -0.21315,-1.31566 c -0.0561,-0.13886 -0.10182,-0.0252 -0.10182,0.25248 0,0.27773 0.0459,0.39134 0.10182,0.25248 0.0561,-0.13886 0.0561,-0.36609 0,-0.50496 z m -0.19081,-1.71405 c -0.0465,-0.30703 -0.0857,-0.1038 -0.0872,0.45167 -8e-4,0.55545 0.0365,0.80665 0.0845,0.55822 0.048,-0.24843 0.0491,-0.70288 0.003,-1.00989 z m -0.40423,-2.83052 c -0.0463,-0.3055 -0.0841,-0.0555 -0.0841,0.55544 0,0.611 0.0379,0.86095 0.0841,0.55546 0.0463,-0.3055 0.0463,-0.80541 0,-1.1109 z m -0.19905,-3.33878 c -0.0424,-0.468786 -0.0765,-0.03428 -0.0759,0.965505 6e-4,0.999803 0.0352,1.383355 0.077,0.852317 0.0417,-0.531025 0.0413,-1.349045 -8.1e-4,-1.817822 z m -0.20044,-3.824777 c -0.041,-0.58695 -0.0749,-0.158254 -0.0754,0.952639 -6e-4,1.110893 0.033,1.591125 0.0744,1.067165 0.0414,-0.523951 0.0419,-1.432862 8.1e-4,-2.019804 z m -0.21735,-1.824598 c -0.0561,-0.138863 -0.10183,-0.02525 -0.10183,0.252478 0,0.277725 0.0459,0.39134 0.10183,0.252477 0.0561,-0.138863 0.0561,-0.366092 0,-0.504955 z M 186.10787,80.3251 c -0.0645,-0.161134 -0.11234,-0.113268 -0.12203,0.122028 -0.009,0.21292 0.039,0.332222 0.10608,0.265101 0.0671,-0.06711 0.0743,-0.24133 0.016,-0.387129 z m -0.20619,-1.022527 c -0.0561,-0.138862 -0.10194,-0.02525 -0.10194,0.252478 0,0.277709 0.0459,0.391324 0.10194,0.252478 0.0561,-0.138863 0.0561,-0.366093 0,-0.504956 z m -0.19578,-1.107061 c -0.0512,-0.196513 -0.0965,-0.08467 -0.10063,0.24863 -0.004,0.33327 0.0378,0.494065 0.0931,0.357324 0.0553,-0.136757 0.0587,-0.409425 0.007,-0.605954 z m -1.62205,-0.306813 c -0.0561,-0.138863 -0.10183,-0.02525 -0.10183,0.252477 0,0.277718 0.0459,0.391341 0.10183,0.252478 0.0561,-0.138863 0.0561,-0.366092 0,-0.504955 z m 1.42476,-1.71684 c -0.0463,-0.305498 -0.0841,-0.0555 -0.0841,0.555451 0,0.610988 0.0379,0.860941 0.0841,0.555443 0.0463,-0.30549 0.0463,-0.805396 0,-1.110894 z M 26.478996,102.93353 c 0.02106,-0.13887 0.0936,-0.34337 0.161191,-0.45446 0.06759,-0.11109 0.186952,-0.85177 0.265249,-1.64597 0.113272,-1.148939 0.23764,-1.526819 0.608661,-1.849419 0.256465,-0.22299 0.531917,-0.7042 0.612116,-1.06934 0.0802,-0.36514 0.271072,-0.78915 0.424162,-0.94224 0.15309,-0.15309 0.282925,-0.56725 0.288524,-0.92036 0.0056,-0.3531 0.213804,-1.27825 0.462678,-2.05588 0.565447,-1.76678 0.956053,-1.86207 1.241812,-0.30297 l 0.20361,1.1109 0.101257,-1.81783 c 0.07999,-1.4362 0.164868,-1.81783 0.404232,-1.81783 0.166635,0 0.364752,-0.13634 0.440262,-0.30298 0.105212,-0.23219 0.141328,-0.20858 0.154577,0.10095 0.01394,0.32571 0.05326,0.34711 0.202945,0.1105 0.13805,-0.21823 0.246185,-0.0531 0.421715,0.64399 0.270977,1.07615 0.854943,1.76069 1.133725,1.32899 0.09434,-0.14611 0.287358,-0.94733 0.428915,-1.7805 0.141558,-0.83316 0.312494,-1.8268 0.379858,-2.20806 0.06737,-0.381265 0.284926,-0.867587 0.483472,-1.080693 0.198545,-0.213113 0.451109,-0.855536 0.561254,-1.427595 0.18695,-0.970966 0.299434,-1.57012 0.934692,-4.978736 0.174695,-0.93737 0.34097,-1.331558 0.581345,-1.378181 0.283915,-0.05509 0.336668,0.123512 0.336668,1.139787 0,0.884849 0.08051,1.23597 0.302971,1.321345 0.166635,0.06389 0.302972,0.293463 0.302972,0.510037 0,0.698968 0.208566,0.993221 0.626514,0.883922 0.368987,-0.09647 0.395771,-0.0073 0.362298,1.209705 -0.03461,1.258258 0.35045,2.380098 0.69775,2.032792 0.07451,-0.07453 0.07773,0.153301 0.0071,0.506238 -0.102066,0.510351 -0.06115,0.641704 0.199876,0.641704 0.207625,0 0.32586,-0.166974 0.321796,-0.454452 -0.0072,-0.509077 -0.469638,-1.223943 -0.665232,-1.02835 -0.238416,0.23841 -0.353138,-0.46163 -0.156364,-0.954147 l 0.19647,-0.491767 0.0128,0.533002 c 0.0091,0.37816 0.11484,0.524855 0.364036,0.504955 0.280415,-0.02242 0.377566,0.195924 0.481843,1.082847 0.07184,0.610979 0.20235,1.286022 0.29003,1.500077 0.157403,0.38427 0.161348,0.38427 0.311884,0 0.129467,-0.330485 0.154607,-0.308262 0.166662,0.14735 0.0119,0.44964 -0.05941,0.52288 -0.44026,0.45222 -0.259067,-0.0481 -0.325747,-0.026 -0.155093,0.0514 0.492737,0.22334 0.845758,0.6599 0.710539,0.8787 -0.07928,0.12827 -0.241487,0.0904 -0.433123,-0.10129 -0.168507,-0.16851 -0.379434,-0.26123 -0.468727,-0.20604 -0.08929,0.0552 -0.263698,-0.30215 -0.387569,-0.79407 -0.123868,-0.49193 -0.316157,-0.950634 -0.427307,-1.019319 -0.111152,-0.06873 -0.202092,-0.302207 -0.202092,-0.518926 0,-0.216712 -0.181784,-0.549659 -0.403963,-0.739897 -0.222179,-0.190237 -0.403961,-0.56142 -0.403961,-0.824851 0,-0.301368 -0.142866,-0.516337 -0.385288,-0.579731 -0.211908,-0.05542 -0.430628,-0.274144 -0.486043,-0.486055 -0.05542,-0.211896 -0.245602,-0.385283 -0.422636,-0.385283 -0.246969,0 -0.325821,-0.223285 -0.338808,-0.959414 l -0.01692,-0.959399 -0.282407,1.211877 c -0.155324,0.66654 -0.379541,1.757235 -0.498261,2.423776 -0.118718,0.666541 -0.303215,1.371429 -0.409991,1.566442 -0.562307,1.02696 -1.199255,3.53761 -1.199255,4.72708 0,1.02804 -0.07004,1.32032 -0.341354,1.42443 -0.190581,0.0731 -0.376442,0.0258 -0.420793,-0.10729 -0.0437,-0.13107 -0.180507,-0.23832 -0.304033,-0.23832 -0.368953,0 -1.357591,-1.05714 -1.357591,-1.45165 0,-0.2014 -0.132356,-0.36618 -0.294123,-0.36618 -0.225007,0 -0.308068,0.34411 -0.353467,1.46437 l -0.05934,1.46436 h -0.605941 c -0.580955,0 -0.605223,-0.0354 -0.58851,-0.85842 0.0124,-0.61049 -0.06445,-0.85841 -0.266088,-0.85841 -0.190008,0 -0.241934,0.13101 -0.157435,0.39724 0.305101,0.96129 -1.100136,5.31456 -1.80255,5.58409 -0.179985,0.0691 -0.327928,0.617909 -0.419628,1.556749 -0.08209,0.84046 -0.273089,1.59866 -0.45433,1.80353 -0.365619,0.4133 -0.634483,0.46011 -0.580002,0.10096 z m 0.674749,-1.6135 c -0.04831,-0.25124 -0.08968,-0.0932 -0.09192,0.35111 -0.0023,0.44436 0.03729,0.64992 0.08784,0.45681 0.05055,-0.19311 0.05239,-0.55668 0.004,-0.80792 z m 0.198358,-1.517209 c -0.0508,-0.19441 -0.09238,-0.0354 -0.09238,0.353469 0,0.38881 0.04157,0.54787 0.09238,0.35346 0.0508,-0.19441 0.0508,-0.512519 0,-0.706929 z m 1.812366,-3.73665 c -0.05604,-0.13886 -0.10188,-0.0252 -0.10188,0.25248 0,0.27772 0.04584,0.39134 0.10188,0.25247 0.05604,-0.13886 0.05604,-0.36609 0,-0.50495 z m 0.206188,-0.99728 c -0.06448,-0.16113 -0.112338,-0.11326 -0.12203,0.12203 -0.0087,0.21293 0.03897,0.33222 0.106086,0.26511 0.06711,-0.0671 0.07429,-0.24134 0.01594,-0.38714 z m 1.833203,-1.17591 c 0.08003,-1.69508 0.206238,-2.07663 0.648622,-1.96095 0.249841,0.0653 0.346143,0.0119 0.281596,-0.15634 -0.113726,-0.29637 -0.711678,-0.29741 -0.928989,-8.1e-4 -0.08161,0.11109 -0.149784,0.86095 -0.151485,1.66634 -0.0025,1.16564 -0.06489,1.46437 -0.306065,1.46437 -0.174815,0 -0.309717,-0.19223 -0.318917,-0.45446 -0.0087,-0.24995 -0.06279,-0.33785 -0.120044,-0.19531 -0.169985,0.42315 0.10826,0.88664 0.488844,0.8143 0.278188,-0.0529 0.365301,-0.30503 0.406438,-1.17633 z m -1.631221,0.36798 c -0.06448,-0.16112 -0.112338,-0.11326 -0.122031,0.12204 -0.0087,0.21292 0.03897,0.33221 0.106087,0.2651 0.06711,-0.0671 0.07429,-0.24132 0.01595,-0.38714 z m 4.507585,-0.87275 c 0,-0.2512 -0.06893,-0.26165 -0.392663,-0.0594 -0.325615,0.20335 -0.472192,0.17777 -0.858418,-0.14977 l -0.465756,-0.39501 0.38477,0.45446 c 0.439262,0.51882 1.332067,0.6192 1.332067,0.14978 z m 0.142854,-1.56129 c -0.04831,-0.25125 -0.08968,-0.0933 -0.09192,0.35112 -0.0023,0.44435 0.03729,0.64992 0.08784,0.4568 0.05055,-0.1931 0.05238,-0.55667 0.004,-0.80792 z m 0.197104,-0.99963 c -0.06448,-0.16113 -0.112339,-0.11327 -0.12203,0.12202 -0.0087,0.21293 0.03897,0.33222 0.106086,0.26511 0.06711,-0.0671 0.07429,-0.24133 0.01594,-0.38713 z m 0.747014,-2.2954 c 0.06898,-0.179751 0.03511,-0.260826 -0.07938,-0.19006 -0.109817,0.06784 -0.199666,0.208927 -0.199666,0.31346 0,0.290526 0.144772,0.226503 0.279046,-0.1234 z m 0.464871,-1.340269 c -0.06448,-0.161118 -0.112338,-0.11326 -0.12203,0.122045 -0.0087,0.212912 0.03897,0.332205 0.106087,0.265093 0.06711,-0.06711 0.07429,-0.241322 0.01594,-0.387138 z m 0.203975,-1.119661 c -0.05121,-0.196529 -0.09648,-0.08467 -0.100591,0.24863 -0.0041,0.333262 0.03778,0.494049 0.09311,0.357308 0.05533,-0.136741 0.05869,-0.409425 0.0075,-0.605938 z m 2.660292,-0.942895 c -0.170704,-0.374651 -0.291605,-0.460679 -0.400281,-0.284848 -0.09045,0.146348 -0.01227,0.3918 0.186518,0.585619 0.451024,0.439763 0.512049,0.353896 0.213763,-0.300771 z M 36.23801,84.565879 c -0.06448,-0.161125 -0.112338,-0.113275 -0.12203,0.122029 -0.0087,0.21292 0.03897,0.332213 0.106086,0.265093 0.06711,-0.06711 0.07429,-0.241322 0.01595,-0.387122 z m 1.679852,-0.277022 c 0,-0.160078 -0.09089,-0.291043 -0.20198,-0.291043 -0.111091,0 -0.201982,-0.242387 -0.201982,-0.538616 0,-0.296246 -0.05447,-0.484152 -0.121044,-0.417573 -0.191497,0.191488 0.136039,1.778676 0.340923,1.65205 0.101247,-0.0626 0.184083,-0.244741 0.184083,-0.404818 z m -1.473303,-1.351449 c -0.04814,-0.249953 -0.08753,-0.04541 -0.08753,0.454451 0,0.499906 0.03939,0.704413 0.08753,0.45446 0.04815,-0.249953 0.04815,-0.658958 0,-0.908911 z m 0.66538,-0.555451 c 0,-0.403964 -0.100995,-0.605938 -0.302972,-0.605938 -0.368538,0 -0.386373,0.275902 -0.05241,0.810655 0.328746,0.526411 0.355376,0.511077 0.355376,-0.204717 z m 16.430024,12.565054 c -0.052,-0.19895 -0.452533,-0.51681 -0.890012,-0.70634 -0.437467,-0.18953 -0.795408,-0.47158 -0.795408,-0.62677 0,-1.32743 -0.49605,-4.54593 -0.8155,-5.291195 -0.218008,-0.508593 -0.399272,-1.348916 -0.402801,-1.867383 -0.0065,-0.972087 -0.414404,-1.787848 -0.780582,-1.561537 -0.255952,0.158189 -0.624217,1.436646 -0.625735,2.172307 -0.0011,0.651675 -0.313081,0.895175 -0.716909,0.560025 -0.24756,-0.205451 -0.294595,-0.136258 -0.297107,0.437076 -0.0055,1.387937 -1.003692,2.356887 -1.392639,1.352597 -0.175595,-0.453397 -0.192824,-0.443774 -0.503993,0.28148 -0.177201,0.41303 -0.323569,0.86749 -0.325274,1.00991 -0.0022,0.18128 -0.06184,0.16807 -0.198887,-0.044 -0.174032,-0.2693 -0.196484,-0.2693 -0.201979,0 -0.0055,0.26931 -0.02797,0.26931 -0.20198,0 -0.162866,-0.25203 -0.198701,-0.23505 -0.21308,0.10095 l -0.01726,0.40396 -0.160561,-0.40396 -0.16056,-0.40396 -0.09669,0.40396 c -0.05321,0.22218 -0.168176,-0.16525 -0.25558,-0.86095 -0.133619,-1.063574 -0.198069,-1.211374 -0.404866,-0.928559 -0.366473,0.501169 -0.775589,0.142149 -0.635612,-0.557766 0.08358,-0.417782 0.03714,-0.581448 -0.1648,-0.581448 -0.154596,0 -0.321668,-0.113607 -0.371259,-0.25247 -0.158299,-0.443239 -0.390171,0.0024 -0.24283,0.465914 0.112107,0.353186 0.18074,0.387847 0.330201,0.166716 0.13694,-0.202628 0.172427,-0.14071 0.129402,0.225786 -0.09811,0.835887 -0.650394,0.618717 -0.770487,-0.302981 l -0.105322,-0.807913 -0.144981,0.807913 c -0.07975,0.44436 -0.149633,1.262388 -0.155304,1.817838 l -0.01027,1.00989 -0.308916,-0.56991 c -0.246217,-0.45423 -0.280213,-0.93683 -0.167497,-2.377669 0.07778,-0.994261 0.23418,-1.865075 0.347559,-1.935156 0.113377,-0.07002 0.442348,0.159965 0.731031,0.511175 0.288695,0.35121 0.638508,0.637744 0.777371,0.636743 0.138862,-8.06e-4 0.252477,0.08904 0.252477,0.200159 0,0.111091 0.0909,0.201974 0.201979,0.201974 0.11109,0 0.20198,-0.136321 0.20198,-0.302957 0,-0.166635 0.118159,-0.302981 0.262572,-0.302981 0.496268,0 0.747336,0.486443 0.747336,1.447923 0,0.773179 0.05976,0.940239 0.302963,0.846909 0.166635,-0.0639 0.302975,-0.288321 0.302975,-0.498611 0,-0.219704 0.140895,-0.382346 0.331195,-0.382346 0.182161,0 0.44872,-0.159069 0.592347,-0.353477 0.209234,-0.283202 0.312032,-0.303272 0.517125,-0.100951 0.427689,0.421856 0.535196,0.296383 0.686077,-0.800628 0.108163,-0.786778 0.291787,-1.190387 0.725889,-1.5959 0.319571,-0.298529 0.58104,-0.733532 0.58104,-0.966699 0,-0.23315 0.114477,-0.423904 0.254388,-0.423904 0.139912,0 0.367916,-0.181791 0.50667,-0.403972 0.311136,-0.498211 0.965212,-0.526871 1.152584,-0.05049 0.07648,0.194407 0.184455,1.035157 0.239978,1.868325 0.0555,0.833176 0.270275,1.928889 0.477214,2.434925 0.206951,0.506036 0.46748,1.811618 0.578963,2.901288 0.111474,1.08968 0.250707,2.02925 0.309399,2.08794 0.05867,0.0586 0.249091,-0.0115 0.423112,-0.15589 0.24767,-0.20554 0.369413,-0.20947 0.560336,-0.018 0.190617,0.19113 0.292672,-0.37307 0.467075,-2.58233 0.122748,-1.554789 0.327011,-3.082061 0.45391,-3.393931 0.209617,-0.515111 0.492794,-2.580659 0.756164,-5.515578 0.05484,-0.610996 0.184072,-1.292677 0.287209,-1.514858 0.103137,-0.222172 0.212687,-0.767532 0.243442,-1.211876 0.03135,-0.453476 0.153765,-0.790078 0.278949,-0.767242 0.143714,0.02622 0.309094,-0.901401 0.465011,-2.608254 0.239705,-2.624098 0.466212,-3.512754 0.836946,-3.283621 0.105541,0.06526 0.191852,0.473924 0.191852,0.908234 0,0.618941 0.06556,0.764531 0.302974,0.673405 0.375608,-0.144138 0.383321,0.261028 0.01748,0.921293 l -0.271126,0.489379 -0.139289,-0.438883 c -0.07659,-0.241386 -0.280315,-0.438892 -0.452676,-0.438892 -0.271356,0 -0.294026,0.258132 -0.169028,1.925315 0.08893,1.185669 0.06806,2.019813 -0.05409,2.1713 -0.109146,0.135289 -0.262113,0.631782 -0.339881,1.103327 -0.07779,0.47156 -0.224387,0.908653 -0.325809,0.971329 -0.101389,0.06276 -0.184411,0.694047 -0.184411,1.403009 0,0.708978 -0.07713,1.336736 -0.171487,1.395023 -0.09429,0.05824 -0.226048,0.879042 -0.292726,1.823888 -0.06664,0.944839 -0.211813,1.887137 -0.32251,2.093991 -0.255055,0.476545 -0.627144,4.055862 -0.627144,6.032712 0,1.49306 -0.219581,2.2881 -0.631952,2.2881 -0.11758,0 -0.256356,-0.16278 -0.308383,-0.36173 z m 0.68552,-3.31765 c -0.04097,-0.58695 -0.07484,-0.15826 -0.07539,0.95263 -6.11e-4,1.1109 0.03299,1.59114 0.0744,1.06718 0.0414,-0.52396 0.04185,-1.43287 9.68e-4,-2.01981 z m -0.556195,2.316 c -0.0011,-0.1944 -0.07998,-0.47469 -0.173879,-0.62286 -0.137497,-0.21692 -0.194703,-0.20708 -0.293535,0.0505 -0.143386,0.37363 0.02972,0.92585 0.290127,0.92585 0.0992,0 0.178981,-0.15906 0.177287,-0.35348 z m -1.289426,-0.77021 c -0.122289,-0.39584 -0.250816,-0.5824 -0.285614,-0.41454 -0.05638,0.27183 0.281397,1.13426 0.444197,1.13426 0.03507,0 -0.03627,-0.32387 -0.158583,-0.71972 z m -0.380644,-2.46147 c -0.04632,-0.3055 -0.08413,-0.0555 -0.08413,0.55543 0,0.611 0.03791,0.86096 0.08413,0.55546 0.04633,-0.30551 0.04633,-0.8054 0,-1.11089 z m 2.423765,-1.817835 c -0.04632,-0.305498 -0.08413,-0.0555 -0.08413,0.555445 0,0.61099 0.03791,0.86095 0.08413,0.55545 0.04633,-0.3055 0.04633,-0.80541 0,-1.110895 z m -8.629549,1.166705 c 0.239945,-0.15169 0.250226,-0.24153 0.05047,-0.44126 -0.199729,-0.19973 -0.250795,-0.18452 -0.250795,0.0747 0,0.19469 -0.142042,0.30509 -0.353461,0.2747 -0.261851,-0.0376 -0.384512,-0.30782 -0.473226,-1.042521 l -0.119755,-0.991737 -0.03168,0.91901 c -0.04195,1.215318 0.418871,1.687338 1.178466,1.207098 z m 5.999107,-0.7589 c -0.05124,-0.19652 -0.09647,-0.0847 -0.100624,0.24864 -0.0044,0.33327 0.0378,0.49405 0.09309,0.3573 0.05528,-0.13674 0.05867,-0.40942 0.0077,-0.60594 z M 41.692749,88.693856 c -0.0508,-0.194392 -0.09237,-0.03525 -0.09237,0.353475 0,0.38882 0.04157,0.54787 0.09237,0.35346 0.0508,-0.1944 0.0508,-0.512527 0,-0.706935 z m 5.999578,0.437935 c 0.189655,-0.494214 0.148466,-0.543145 -0.180369,-0.214311 -0.343377,0.343381 -0.387112,0.533811 -0.122606,0.533811 0.0992,0 0.235542,-0.14377 0.302975,-0.3195 z m -0.86154,-0.639909 c 0.251242,-0.320348 0.244096,-0.327495 -0.07626,-0.07623 -0.194408,0.152462 -0.353461,0.311523 -0.353461,0.353468 0,0.166232 0.165859,0.05921 0.429721,-0.277209 z m -4.64721,-1.666344 c 0.110937,0 0.13954,-0.100628 0.06359,-0.223536 -0.224497,-0.363245 -0.489241,0.237499 -0.454581,1.031464 l 0.03086,0.706929 0.07923,-0.757432 c 0.04357,-0.416572 0.169995,-0.757425 0.280943,-0.757425 z m 5.765116,0.757425 c -0.05604,-0.138863 -0.101826,-0.02525 -0.101826,0.252477 0,0.277725 0.04589,0.39134 0.101826,0.252478 0.05604,-0.138863 0.05604,-0.366093 0,-0.504955 z m 6.665376,-0.201974 c -0.05604,-0.138863 -0.101825,-0.02525 -0.101825,0.252477 0,0.277725 0.04589,0.39134 0.101825,0.252478 0.05604,-0.138871 0.05604,-0.366093 0,-0.504955 z m -10.03084,0.252477 c 0,-0.11109 -0.0401,-0.201982 -0.08904,-0.201982 -0.04895,0 -0.145244,0.0909 -0.2139,0.201982 -0.06861,0.11109 -0.02863,0.201974 0.08904,0.201974 0.117646,0 0.2139,-0.0909 0.2139,-0.201974 z m 6.407796,-1.864712 c -0.04501,-0.363028 -0.08271,-0.114704 -0.0838,0.551837 -0.0011,0.666532 0.03561,0.963561 0.08172,0.660055 0.04611,-0.303513 0.04698,-0.848857 0.0022,-1.211892 z m -2.836135,1.018912 c -0.06446,-0.161126 -0.112347,-0.113268 -0.122038,0.122036 -0.0087,0.21292 0.039,0.332214 0.106086,0.265102 0.06708,-0.06711 0.07429,-0.241338 0.01595,-0.387138 z m 1.067485,-1.224508 c -0.0033,-0.142218 -0.135935,-0.08129 -0.302974,0.139597 -0.163107,0.215638 -0.296551,0.311071 -0.296551,0.212073 0,-0.09898 -0.10117,-0.07889 -0.224781,0.04477 -0.123622,0.123633 -0.16575,0.320284 -0.09363,0.436996 0.15559,0.251736 0.927694,-0.449329 0.917926,-0.833458 z m 5.801859,0.306813 c -0.05124,-0.196522 -0.09647,-0.08467 -0.100623,0.24863 -0.0044,0.33327 0.0378,0.494057 0.09308,0.357316 0.05529,-0.136749 0.05867,-0.409417 0.0077,-0.605946 z m 0.208393,-2.121021 c -0.0449,-0.363027 -0.08271,-0.114704 -0.0838,0.551829 -0.0011,0.66654 0.03561,0.96356 0.08172,0.660063 0.04611,-0.303514 0.04698,-0.848857 0.0022,-1.211892 z m -4.546882,0.65282 c -0.108162,-0.736904 -0.423384,-0.764346 -0.921772,-0.08034 -0.373018,0.511988 -0.372897,0.512456 0.06173,0.246128 0.376317,-0.230617 0.462705,-0.218856 0.636246,0.08664 0.281145,0.494872 0.326071,0.444183 0.223831,-0.252477 z m 4.949126,-3.585166 c -0.04632,-0.305498 -0.08413,-0.0555 -0.08413,0.555451 0,0.610988 0.03791,0.86094 0.08413,0.555442 0.04632,-0.305489 0.04632,-0.805395 0,-1.110893 z m 0.397272,-1.502234 c -0.06446,-0.161125 -0.112336,-0.11326 -0.122027,0.122029 -0.0087,0.212928 0.039,0.332221 0.106086,0.265109 0.06708,-0.06711 0.07429,-0.241338 0.01596,-0.387138 z m 0.610505,-2.638374 c -0.04818,-0.249953 -0.08751,-0.04541 -0.08751,0.454459 0,0.499906 0.03933,0.704413 0.08751,0.45446 0.04818,-0.249953 0.04818,-0.658958 0,-0.908919 z m 42.030404,3.013453 c 0.0615,-0.235272 0.14915,-0.315936 0.19472,-0.179251 0.0456,0.136693 0.17775,0.189866 0.29377,0.118164 0.11622,-0.07179 0.17158,-0.01234 0.12329,0.132579 -0.0482,0.144622 -0.23075,0.283945 -0.40565,0.30962 -0.23177,0.03396 -0.28765,-0.06937 -0.20613,-0.381112 z m -41.563907,-3.6194 c 0.0022,-0.32238 0.05222,-0.376941 0.172207,-0.187728 0.122344,0.192955 0.263752,0.06727 0.511334,-0.45446 0.188224,-0.396648 0.373084,-0.721182 0.41081,-0.721182 0.03769,0 0.107178,0.263254 0.154453,0.585005 0.05921,0.403327 0.0087,0.555604 -0.160812,0.490347 -0.135673,-0.05211 -0.306449,0.09374 -0.379518,0.323906 -0.179518,0.565614 -0.712386,0.538632 -0.708474,-0.03581 z"
           id="path1996"
           inkscape:connector-curvature="0" />
        <path
           style="fill:#000000;stroke-width:0.18487136"
           d=""
           id="path1994"
           inkscape:connector-curvature="0" />
        <rect
           style="opacity:1;fill:#acc5df;fill-opacity:1;stroke:none;stroke-width:2.56599998;stroke-miterlimit:4;stroke-dasharray:none;stroke-dashoffset:0;stroke-opacity:1"
           id="rect1975-9"
           width="99.424263"
           height="5.6126614"
           x="14.463234"
           y="43.601631" />
        <rect
           style="opacity:1;fill:#acc5df;fill-opacity:1;stroke:none;stroke-width:2.56599998;stroke-miterlimit:4;stroke-dasharray:none;stroke-dashoffset:0;stroke-opacity:1"
           id="rect1975-9-4"
           width="99.424263"
           height="5.6126614"
           x="104.72626"
           y="54.762772" />
        <text
           xml:space="preserve"
           style="font-style:normal;font-weight:normal;font-size:8.02038383px;line-height:1.25;font-family:sans-serif;letter-spacing:0px;word-spacing:0px;fill:#396494;fill-opacity:1;stroke:none;stroke-width:0.20050961"
           x="26.971807"
           y="143.51071"
           id="text2039"><tspan
             sodipodi:role="line"
             id="tspan2037"
             x="26.971807"
             y="143.51071"
             style="font-style:normal;font-variant:normal;font-weight:normal;font-stretch:normal;font-size:26.73461533px;font-family:Norwester;-inkscape-font-specification:Norwester;fill:#396494;fill-opacity:1;stroke-width:0.20050961">GENE BROWSER</tspan></text>
      </g>
    </g>
  </g>
</svg>
