<?xml version="1.0" encoding="UTF-8" standalone="no"?>
<!-- Created with Inkscape (http://www.inkscape.org/) -->

<svg
   xmlns:dc="http://purl.org/dc/elements/1.1/"
   xmlns:cc="http://creativecommons.org/ns#"
   xmlns:rdf="http://www.w3.org/1999/02/22-rdf-syntax-ns#"
   xmlns:svg="http://www.w3.org/2000/svg"
   xmlns="http://www.w3.org/2000/svg"
   xmlns:sodipodi="http://sodipodi.sourceforge.net/DTD/sodipodi-0.dtd"
   xmlns:inkscape="http://www.inkscape.org/namespaces/inkscape"
   width="210mm"
   height="297mm"
   viewBox="0 0 210 297"
   version="1.1"
   id="svg8"
   inkscape:version="0.92.3 (2405546, 2018-03-11)"
   sodipodi:docname="tf-tools.svg">
  <defs
     id="defs2" />
  <sodipodi:namedview
     id="base"
     pagecolor="#ffffff"
     bordercolor="#666666"
     borderopacity="1.0"
     inkscape:pageopacity="0.0"
     inkscape:pageshadow="2"
     inkscape:zoom="0.35"
     inkscape:cx="-395.86909"
     inkscape:cy="905.34264"
     inkscape:document-units="mm"
     inkscape:current-layer="g969"
     showgrid="false"
     inkscape:window-width="1600"
     inkscape:window-height="1163"
     inkscape:window-x="1680"
     inkscape:window-y="0"
     inkscape:window-maximized="1"
     showguides="true"
     inkscape:guide-bbox="true">
    <sodipodi:guide
       position="79.091516,199.66593"
       orientation="1,0"
       id="guide9314"
       inkscape:locked="false" />
    <sodipodi:guide
       position="100.16369,188.23215"
       orientation="0,1"
       id="guide9321"
       inkscape:locked="false" />
  </sodipodi:namedview>
  <metadata
     id="metadata5">
    <rdf:RDF>
      <cc:Work
         rdf:about="">
        <dc:format>image/svg+xml</dc:format>
        <dc:type
           rdf:resource="http://purl.org/dc/dcmitype/StillImage" />
        <dc:title></dc:title>
      </cc:Work>
    </rdf:RDF>
  </metadata>
  <g
     inkscape:label="Layer 1"
     inkscape:groupmode="layer"
     id="layer1">
    <g
       id="g969">
      <rect
         style="opacity:1;fill:#5b6c5d;fill-opacity:1;stroke:none;stroke-width:0.08819444;stroke-miterlimit:4;stroke-dasharray:none;stroke-dashoffset:0;stroke-opacity:1"
         id="rect9332"
         width="36.883194"
         height="6.4144683"
         x="143.99907"
         y="58.264881" />
      <rect
         y="153.57297"
         x="158.05969"
         height="6.4144683"
         width="36.883194"
         id="rect9189"
         style="opacity:1;fill:#5b6c5d;fill-opacity:1;stroke:none;stroke-width:0.08819444;stroke-miterlimit:4;stroke-dasharray:none;stroke-dashoffset:0;stroke-opacity:1" />
      <rect
         y="-169.23363"
         x="8.8824406"
         height="23.245535"
         width="23.245535"
         id="rect815"
         style="fill:#ececec;fill-opacity:1;stroke:#d9d9d9;stroke-width:0.25;stroke-miterlimit:4;stroke-dasharray:none;stroke-opacity:1" />
      <rect
         y="-169.23363"
         x="32.127975"
         height="23.245535"
         width="23.245535"
         id="rect815-3"
         style="fill:#ececec;fill-opacity:1;stroke:#d9d9d9;stroke-width:0.25;stroke-miterlimit:4;stroke-dasharray:none;stroke-opacity:1" />
      <rect
         y="-169.23363"
         x="55.373508"
         height="23.245535"
         width="23.245535"
         id="rect815-6"
         style="fill:#fdd4d4;fill-opacity:1;stroke:#d9d9d9;stroke-width:0.25;stroke-miterlimit:4;stroke-dasharray:none;stroke-opacity:1" />
      <rect
         y="-169.23361"
         x="78.619034"
         height="23.245535"
         width="23.245535"
         id="rect815-7"
         style="fill:#fdd4d4;fill-opacity:1;stroke:#d9d9d9;stroke-width:0.25;stroke-miterlimit:4;stroke-dasharray:none;stroke-opacity:1" />
      <rect
         y="-145.9881"
         x="8.8824406"
         height="23.245535"
         width="23.245535"
         id="rect815-5"
         style="fill:#ececec;fill-opacity:1;stroke:#d9d9d9;stroke-width:0.25;stroke-miterlimit:4;stroke-dasharray:none;stroke-opacity:1" />
      <rect
         y="-145.98808"
         x="32.127975"
         height="23.245535"
         width="23.245535"
         id="rect815-35"
         style="fill:#ececec;fill-opacity:1;stroke:#d9d9d9;stroke-width:0.25;stroke-miterlimit:4;stroke-dasharray:none;stroke-opacity:1" />
      <rect
         y="-145.98808"
         x="55.373508"
         height="23.245535"
         width="23.245535"
         id="rect815-62"
         style="fill:#fa5556;fill-opacity:1;stroke:#d9d9d9;stroke-width:0.25;stroke-miterlimit:4;stroke-dasharray:none;stroke-opacity:1" />
      <rect
         y="-145.98808"
         x="78.619034"
         height="23.245535"
         width="23.245535"
         id="rect815-9"
         style="fill:#fdd4d4;fill-opacity:1;stroke:#d9d9d9;stroke-width:0.25;stroke-miterlimit:4;stroke-dasharray:none;stroke-opacity:1" />
      <rect
         y="-122.74256"
         x="8.8824387"
         height="23.245535"
         width="23.245535"
         id="rect815-1"
         style="fill:#fa5556;fill-opacity:1;stroke:#d9d9d9;stroke-width:0.25;stroke-miterlimit:4;stroke-dasharray:none;stroke-opacity:1" />
      <rect
         y="-122.74256"
         x="32.127972"
         height="23.245535"
         width="23.245535"
         id="rect815-2"
         style="fill:#fdd4d4;fill-opacity:1;stroke:#d9d9d9;stroke-width:0.25;stroke-miterlimit:4;stroke-dasharray:none;stroke-opacity:1" />
      <rect
         y="-122.74254"
         x="55.373501"
         height="23.245535"
         width="23.245535"
         id="rect815-70"
         style="fill:#fdd4d4;fill-opacity:1;stroke:#d9d9d9;stroke-width:0.25;stroke-miterlimit:4;stroke-dasharray:none;stroke-opacity:1" />
      <rect
         y="-122.74254"
         x="78.619034"
         height="23.245535"
         width="23.245535"
         id="rect815-93"
         style="fill:#fdd4d4;fill-opacity:1;stroke:#d9d9d9;stroke-width:0.25;stroke-miterlimit:4;stroke-dasharray:none;stroke-opacity:1" />
      <rect
         y="-99.497025"
         x="8.8824501"
         height="23.245535"
         width="23.245535"
         id="rect815-60"
         style="fill:#fa5556;fill-opacity:1;stroke:#d9d9d9;stroke-width:0.25;stroke-miterlimit:4;stroke-dasharray:none;stroke-opacity:1" />
      <rect
         y="50.285416"
         x="125.34645"
         height="23.245535"
         width="23.245535"
         id="rect815-3-6"
         style="fill:#23527c;fill-opacity:1;stroke:none;stroke-width:0.25;stroke-miterlimit:4;stroke-dasharray:none;stroke-opacity:1" />
      <rect
         y="-99.497025"
         x="55.373524"
         height="23.245535"
         width="23.245535"
         id="rect815-6-2"
         style="fill:#fdd4d4;fill-opacity:1;stroke:#d9d9d9;stroke-width:0.25;stroke-miterlimit:4;stroke-dasharray:none;stroke-opacity:1" />
      <rect
         y="-99.497025"
         x="78.619049"
         height="23.245535"
         width="23.245535"
         id="rect815-7-6"
         style="fill:#ececec;fill-opacity:1;stroke:#d9d9d9;stroke-width:0.25;stroke-miterlimit:4;stroke-dasharray:none;stroke-opacity:0.98823529" />
      <rect
         y="-76.251511"
         x="8.8824577"
         height="23.245535"
         width="23.245535"
         id="rect815-5-1"
         style="fill:#fa5556;fill-opacity:1;stroke:#d9d9d9;stroke-width:0.25;stroke-miterlimit:4;stroke-dasharray:none;stroke-opacity:1" />
      <rect
         y="145.24255"
         x="118.39167"
         height="23.075304"
         width="66.164589"
         id="rect815-35-8"
         style="fill:#23527c;fill-opacity:1;stroke:none;stroke-width:0.42022994;stroke-miterlimit:4;stroke-dasharray:none;stroke-opacity:1" />
      <rect
         y="-76.251495"
         x="55.373531"
         height="23.245535"
         width="23.245535"
         id="rect815-62-7"
         style="fill:#ececec;fill-opacity:1;stroke:#d9d9d9;stroke-width:0.25;stroke-miterlimit:4;stroke-dasharray:none;stroke-opacity:1" />
      <rect
         y="-76.251495"
         x="78.619057"
         height="23.245535"
         width="23.245535"
         id="rect815-9-9"
         style="fill:#ececec;fill-opacity:1;stroke:#d9d9d9;stroke-width:0.25;stroke-miterlimit:4;stroke-dasharray:none;stroke-opacity:1" />
      <path
         style="fill:#fa5556;fill-opacity:1;stroke-width:0.16279121"
         d="m 128.43479,-140.14654 c 0.4808,-0.82645 1.06377,-1.17437 1.93344,-1.15394 0.96898,0.0228 1.34955,0.33062 2.68014,2.16826 0.58743,0.81127 1.31735,1.73672 1.62203,2.05656 l 0.554,0.58151 12.11005,-11.55411 12.11006,-11.55412 -0.39025,-0.44339 c -0.21464,-0.24385 -1.13116,-1.04627 -2.0367,-1.78313 -0.90555,-0.73686 -1.75963,-1.5217 -1.89798,-1.74407 -0.3535,-0.56818 -0.27685,-1.72923 0.15199,-2.30251 0.48079,-0.64271 1.40268,-1.029 2.13141,-0.8931 1.1416,0.21288 4.41824,2.96817 6.60132,5.55098 5.59367,6.61782 8.70041,14.30111 9.77171,24.16647 0.17205,1.5845 0.20289,3.30797 0.12167,6.80133 -0.0961,4.13457 -0.0794,4.67129 0.14339,4.61224 0.83269,-0.22083 5.81797,-0.31336 8.69305,-0.16163 7.28333,0.38435 13.20406,2.22581 18.04023,5.61086 4.45307,3.11689 8.10988,7.93788 9.59052,12.64375 0.52253,1.66079 0.45375,2.10855 -0.46875,3.05232 -0.51496,0.52682 -1.33289,0.68736 -2.14898,0.42182 -0.83189,-0.27065 -1.0753,-0.60704 -1.65562,-2.2878 -0.27642,-0.80059 -0.67011,-1.80545 -0.87493,-2.23301 l -0.37237,-0.77742 -10.7418,10.256598 c -10.02288,9.57013 -10.72151,10.27256 -10.43844,10.49515 0.27403,0.21548 0.98214,0.54069 3.383,1.55364 1.0692,0.45112 1.45804,1.03172 1.43203,2.13827 -0.0221,0.94332 -0.39124,1.49439 -1.29946,1.94015 -0.61625,0.30251 -1.04394,0.26397 -2.33575,-0.21023 -3.73499,-1.37104 -7.68008,-4.28764 -10.38273,-7.67592 -4.56585,-5.72418 -6.78482,-13.228968 -6.56912,-22.217608 0.0605,-2.52068 0.32256,-5.74863 0.56798,-6.99599 l 0.0969,-0.49258 -4.67987,-0.11108 c -5.00838,-0.1188 -6.90701,-0.33136 -10.96588,-1.2272 -8.71421,-1.92337 -16.83976,-6.63171 -22.01408,-12.75604 -2.54306,-3.00999 -3.13307,-4.32195 -2.46221,-5.47504 z m 12.57615,8.49104 c 1.68905,1.11337 4.12353,2.4119 6.09502,3.25102 l 1.34633,0.57303 9.51266,-9.05738 9.51266,-9.05738 -0.49066,-1.33723 c -0.96224,-2.62269 -2.66426,-6.07571 -3.7447,-7.59714 -0.21999,-0.30976 -0.84492,0.2578 -11.97129,10.8726 -6.45655,6.15969 -11.74013,11.23888 -11.74125,11.28709 -0.001,0.0482 0.66541,0.52765 1.4812,1.0654 z m 15.79982,5.96846 c 1.27763,0.23099 2.93323,0.3359 6.91454,0.43818 2.87908,0.074 5.29719,0.0749 5.37355,0.002 0.0764,-0.0728 0.19252,-2.45157 0.25813,-5.28611 0.0951,-4.10817 0.0702,-5.51097 -0.12251,-6.9148 -0.13299,-0.96861 -0.24058,-1.81348 -0.23906,-1.87752 0.002,-0.0641 -3.14246,2.88379 -6.98659,6.55065 -3.84413,3.66687 -6.96426,6.69332 -6.93363,6.72542 0.0308,0.032 0.81165,0.19507 1.73557,0.36212 z m 15.54136,15.83925 0.0791,1.02202 6.47788,-6.18364 6.47789,-6.18366 -1.76936,-0.16322 c -2.86254,-0.26406 -9.90043,-0.0244 -10.42585,0.35504 -0.15217,0.10988 -0.32145,1.23414 -0.72954,4.84371 -0.1167,1.03233 -0.19063,5.26904 -0.1101,6.30975 z m 1.81615,9.50196 c 0.71509,1.989278 1.14118,2.839848 2.41695,4.824188 1.06266,1.65288 2.09608,2.95858 2.34624,2.96447 0.0661,0.002 5.16774,-4.81327 11.33677,-10.699588 l 11.21646,-10.7024 -0.85122,-0.78364 c -1.96208,-1.80634 -4.93903,-3.6397 -7.32028,-4.50822 l -1.1729,-0.4278 -9.24214,8.81678 c -5.08318,4.84922 -9.2435,8.8747 -9.24517,8.94552 -0.002,0.0708 0.23024,0.77761 0.51532,1.57069 z"
         id="path982"
         inkscape:connector-curvature="0" />
      <path
         style="fill:none;stroke:#d9d9d9;stroke-width:0.26458332px;stroke-linecap:butt;stroke-linejoin:miter;stroke-opacity:0.98823529"
         d="m 101.86457,-122.74254 26.57022,-17.404"
         id="path998"
         inkscape:connector-curvature="0" />
      <path
         style="fill:none;stroke:#d9d9d9;stroke-width:0.26458332px;stroke-linecap:butt;stroke-linejoin:miter;stroke-opacity:0.98823529"
         d="m 101.86459,-99.497032 84.52492,16.72545"
         id="path1000"
         inkscape:connector-curvature="0" />
      <path
         style="opacity:1;fill:#ef6f6c;fill-opacity:1;stroke:none;stroke-width:2.52538133;stroke-miterlimit:4;stroke-dasharray:none;stroke-dashoffset:0;stroke-opacity:1"
         d="m 163.92189,133.97872 c 0.075,-0.12862 0.52662,-0.86528 1.00358,-1.63702 0.47696,-0.77175 0.99707,-1.64371 1.1558,-1.93771 0.15873,-0.29399 0.3293,-0.5646 0.37904,-0.60135 0.0923,-0.0682 0.82248,-1.26277 1.33259,-2.18019 0.15589,-0.28036 0.24867,-0.56601 0.20618,-0.63476 -0.0475,-0.0769 -9.57041,-0.12502 -24.725,-0.12502 h -24.64773 v -3.0736 -3.0736 h 24.72244 c 14.6868,0 24.72243,-0.0492 24.72243,-0.1211 0,-0.0666 -0.93557,-1.66676 -2.07903,-3.5559 -1.14347,-1.88913 -2.05131,-3.46252 -2.01742,-3.49641 0.0339,-0.0339 2.63822,1.2126 5.7874,2.76999 3.14918,1.55739 7.85168,3.88174 10.45,5.16522 l 4.72421,2.33361 -1.31653,0.64893 c -3.34687,1.64969 -6.41872,3.17368 -6.66192,3.30508 -0.147,0.0794 -2.49229,1.23968 -5.21175,2.57836 -2.71947,1.33868 -5.59566,2.75693 -6.39154,3.15165 -0.79588,0.39473 -1.47452,0.71768 -1.5081,0.71768 -0.0336,0 2.7e-4,-0.10523 0.0754,-0.23386 z"
         id="path9286"
         inkscape:connector-curvature="0" />
      <rect
         style="opacity:1;fill:#ef6f6c;fill-opacity:1;stroke:none;stroke-width:5;stroke-miterlimit:4;stroke-dasharray:none;stroke-dashoffset:0;stroke-opacity:1"
         id="rect9288"
         width="6.6669769"
         height="22.337286"
         x="118.62637"
         y="120.71547" />
      <path
         style="opacity:1;fill:#ef6f6c;fill-opacity:1;stroke:none;stroke-width:12.8614645;stroke-miterlimit:4;stroke-dasharray:none;stroke-dashoffset:0;stroke-opacity:1"
         d="m 148.59198,73.530952 c -3.93244,0.634678 -10.41516,0.0503 -15.52955,-1.399897 -3.9591,-1.122615 -7.23469,0.187452 -10.44743,4.178438 -2.2294,2.769449 -2.47994,3.494528 -3.15897,9.142478 -0.64856,5.390275 -0.56261,6.595119 0.70443,9.931985 3.05985,8.058384 9.52798,13.571674 17.77843,15.153924 5.67751,1.08884 11.06685,-0.13989 16.10146,-3.67101 5.25764,-3.68756 8.23085,-8.558375 9.45914,-15.496287 0.8802,-4.971858 0.84209,-5.919933 -0.3798,-9.437174 -2.26184,-6.510929 -7.49482,-9.537542 -14.52771,-8.402457 z"
         id="path9310"
         inkscape:connector-curvature="0" />
      <path
         style="fill:none;stroke:#5b6c5d;stroke-width:5;stroke-linecap:butt;stroke-linejoin:miter;stroke-opacity:1;stroke-miterlimit:4;stroke-dasharray:none"
         d="M 125.48809,60.764882 H 78.997023 c 0,0 -39.360083,-0.03699 -39.309525,48.002978 0.05053,48.00914 39.404018,48.00297 39.404018,48.00297 h 39.215024"
         id="path9312"
         inkscape:connector-curvature="0"
         sodipodi:nodetypes="ccscc" />
    </g>
  </g>
</svg>
